<?xml version="1.0" standalone="no"?>
<!DOCTYPE svg PUBLIC "-//W3C//DTD SVG 20010904//EN"
 "http://www.w3.org/TR/2001/REC-SVG-20010904/DTD/svg10.dtd">
<svg version="1.0" xmlns="http://www.w3.org/2000/svg"
 width="700.000000pt" height="700.000000pt" viewBox="0 0 700.000000 700.000000"
 preserveAspectRatio="xMidYMid meet">
<metadata>
Created by potrace 1.11, written by Peter Selinger 2001-2013
</metadata>
<g transform="translate(0.000000,700.000000) scale(0.100000,-0.100000)"
fill="#000000" stroke="none">
<path d="M1330 6808 c-18 -13 -43 -36 -54 -51 l-21 -28 0 -3229 0 -3229 21
-28 c11 -15 36 -38 54 -50 l33 -23 2137 0 2137 0 33 22 c18 13 43 36 54 51
l21 28 0 3229 0 3229 -21 28 c-11 15 -36 38 -54 51 l-33 22 -2137 0 -2137 0
-33 -22z m2350 -683 c0 -9 9 -15 24 -15 45 0 86 -13 86 -26 0 -9 11 -14 30
-14 20 0 30 -5 30 -15 0 -10 10 -15 30 -15 20 0 30 -5 30 -15 0 -8 9 -15 20
-15 13 0 20 -7 20 -20 0 -13 7 -20 20 -20 11 0 20 -7 20 -15 0 -8 7 -15 15
-15 8 0 15 -7 15 -15 0 -8 7 -15 15 -15 8 0 15 -7 15 -15 0 -8 7 -15 15 -15 8
0 15 -9 15 -20 0 -11 6 -20 14 -20 8 0 17 -13 21 -30 4 -16 13 -30 21 -30 9 0
14 -11 14 -35 0 -24 5 -35 15 -35 11 0 15 -12 15 -50 0 -36 4 -50 14 -50 21 0
26 -33 26 -185 0 -152 -5 -185 -26 -185 -10 0 -14 -14 -14 -50 0 -38 -4 -50
-15 -50 -10 0 -15 -10 -15 -30 0 -20 -5 -30 -15 -30 -8 0 -15 -9 -15 -20 0
-13 -7 -20 -20 -20 -16 0 -20 -7 -20 -30 0 -20 -5 -30 -15 -30 -8 0 -15 -9
-15 -20 0 -11 -7 -20 -15 -20 -8 0 -15 -7 -15 -15 0 -8 -7 -15 -15 -15 -8 0
-15 -7 -15 -16 0 -9 -9 -18 -20 -21 -11 -3 -20 -9 -20 -13 0 -5 -13 -11 -30
-15 -16 -4 -30 -13 -30 -21 0 -9 -11 -14 -35 -14 -28 0 -35 -4 -35 -20 0 -16
-7 -20 -35 -20 -24 0 -35 -5 -35 -15 0 -11 -12 -15 -50 -15 -38 0 -50 -4 -50
-15 0 -13 -23 -15 -150 -15 -127 0 -150 2 -150 15 0 11 -12 15 -45 15 -31 0
-47 5 -51 15 -4 9 -19 15 -35 15 -22 0 -29 5 -29 20 0 16 -7 20 -35 20 -24 0
-35 5 -35 14 0 8 -13 17 -30 21 -16 4 -30 10 -30 15 0 4 -9 10 -20 13 -11 3
-20 12 -20 21 0 9 -7 16 -15 16 -8 0 -15 7 -15 15 0 8 -7 15 -15 15 -8 0 -15
9 -15 20 0 11 -6 20 -14 20 -8 0 -17 14 -21 30 -4 17 -13 30 -21 30 -8 0 -14
9 -14 20 0 11 -7 20 -15 20 -10 0 -15 10 -15 30 0 19 -5 30 -14 30 -15 0 -26
30 -26 72 0 14 -6 28 -12 31 -10 3 -13 48 -13 182 0 134 3 179 13 183 7 2 12
22 12 49 0 36 4 46 20 50 15 4 20 14 20 39 0 24 5 34 15 34 10 0 15 10 15 30
0 19 5 30 14 30 7 0 16 9 19 20 3 11 12 20 21 20 9 0 16 7 16 15 0 8 7 15 15
15 8 0 15 7 15 15 0 8 7 15 15 15 8 0 15 7 15 15 0 8 6 15 14 15 7 0 16 9 19
20 3 11 12 20 21 20 9 0 16 7 16 15 0 10 10 15 30 15 20 0 30 5 30 15 0 10 11
15 35 15 23 0 35 5 35 14 0 15 30 26 73 26 17 0 27 5 27 15 0 13 27 15 180 15
153 0 180 -2 180 -15z m-90 -1860 c0 -12 19 -15 108 -15 119 0 152 -6 152 -26
0 -11 17 -14 70 -14 56 0 70 -3 70 -15 0 -11 12 -15 45 -15 33 0 45 -4 45 -15
0 -10 10 -15 28 -15 42 0 72 -11 72 -26 0 -9 11 -14 30 -14 20 0 30 -5 30 -15
0 -8 9 -15 20 -15 11 0 20 -7 20 -15 0 -10 10 -15 31 -15 22 0 32 -5 36 -20 4
-15 14 -20 39 -20 24 0 34 -5 34 -15 0 -10 10 -15 30 -15 20 0 30 -5 30 -15 0
-8 7 -15 15 -15 8 0 15 -7 15 -15 0 -8 9 -15 20 -15 13 0 20 -7 20 -20 0 -11
7 -20 15 -20 8 0 15 -6 15 -14 0 -8 14 -17 30 -21 17 -4 30 -11 30 -16 0 -5 7
-9 16 -9 9 0 18 -9 21 -20 3 -11 12 -20 19 -20 8 0 14 -7 14 -15 0 -8 6 -15
13 -15 15 0 57 -44 57 -59 0 -6 7 -11 15 -11 10 0 15 -10 15 -30 0 -23 4 -30
20 -30 13 0 20 -7 20 -20 0 -11 7 -20 15 -20 8 0 15 -7 15 -15 0 -8 7 -15 15
-15 8 0 15 -9 15 -20 0 -11 7 -20 15 -20 10 0 15 -10 15 -30 0 -23 4 -30 20
-30 16 0 20 -7 20 -35 0 -24 5 -35 15 -35 10 0 15 -10 15 -30 0 -20 5 -30 15
-30 10 0 15 -11 15 -35 0 -28 4 -35 20 -35 16 0 20 -7 20 -35 0 -24 5 -35 15
-35 10 0 15 -11 15 -35 0 -24 5 -35 15 -35 12 0 15 -13 15 -59 0 -50 3 -59 20
-64 17 -4 20 -14 20 -70 0 -43 4 -67 13 -70 9 -3 12 -71 12 -297 0 -226 -3
-294 -12 -298 -8 -2 -13 -21 -13 -45 0 -57 -9 -87 -26 -87 -10 0 -14 -14 -14
-50 0 -38 -4 -50 -15 -50 -11 0 -15 -12 -15 -50 0 -38 -4 -50 -15 -50 -10 0
-15 -10 -15 -31 0 -22 -5 -32 -20 -36 -15 -4 -20 -14 -20 -39 0 -24 -5 -34
-15 -34 -10 0 -15 -10 -15 -30 0 -19 -5 -30 -14 -30 -7 0 -16 -13 -19 -30 -4
-18 -13 -30 -22 -30 -8 0 -15 -9 -15 -20 0 -11 -7 -20 -15 -20 -10 0 -15 -10
-15 -30 0 -20 -5 -30 -15 -30 -8 0 -15 -9 -15 -20 0 -11 -7 -20 -15 -20 -8 0
-15 -7 -15 -15 0 -8 -9 -15 -20 -15 -13 0 -20 -7 -20 -20 0 -11 -6 -20 -14
-20 -8 0 -17 -14 -21 -30 -4 -17 -13 -30 -21 -30 -8 0 -14 -7 -14 -15 0 -8 -7
-15 -15 -15 -8 0 -15 -9 -15 -20 0 -13 -7 -20 -20 -20 -11 0 -20 -7 -20 -15 0
-10 -10 -15 -30 -15 -23 0 -30 -4 -30 -20 0 -11 -7 -20 -15 -20 -8 0 -15 -7
-15 -15 0 -8 -7 -15 -15 -15 -8 0 -15 -7 -15 -15 0 -8 -9 -15 -20 -15 -11 0
-20 -6 -20 -14 0 -8 -13 -17 -30 -21 -16 -4 -30 -13 -30 -21 0 -8 -9 -14 -20
-14 -11 0 -20 -7 -20 -15 0 -10 -11 -15 -35 -15 -25 0 -35 -4 -35 -15 0 -9
-12 -18 -30 -22 -16 -3 -30 -9 -30 -13 0 -5 -13 -11 -30 -15 -16 -4 -30 -13
-30 -21 0 -9 -11 -14 -35 -14 -23 0 -35 -5 -35 -14 0 -15 -30 -26 -72 -26 -18
0 -28 -5 -28 -15 0 -11 -12 -15 -50 -15 -38 0 -50 -4 -50 -15 0 -12 -16 -15
-80 -15 -61 0 -80 -3 -80 -14 0 -22 -48 -26 -294 -26 -242 0 -276 3 -276 26 0
11 -19 14 -80 14 -64 0 -80 3 -80 15 0 11 -12 15 -50 15 -38 0 -50 4 -50 15 0
10 -10 15 -27 15 -43 0 -73 11 -73 26 0 9 -12 14 -35 14 -24 0 -35 5 -35 15 0
10 -10 15 -30 15 -17 0 -33 6 -36 14 -3 8 -19 18 -35 21 -16 4 -29 13 -29 21
0 9 -11 14 -30 14 -20 0 -30 5 -30 15 0 8 -9 15 -20 15 -11 0 -20 6 -20 14 0
8 -13 17 -30 21 -16 4 -30 13 -30 21 0 8 -9 14 -20 14 -11 0 -20 7 -20 15 0 8
-7 15 -15 15 -8 0 -15 7 -15 15 0 8 -9 15 -20 15 -13 0 -20 7 -20 20 0 16 -7
20 -30 20 -20 0 -30 5 -30 15 0 8 -7 15 -15 15 -8 0 -15 7 -15 15 0 9 -7 18
-15 21 -8 4 -15 12 -15 20 0 8 -9 14 -20 14 -16 0 -20 7 -20 30 0 20 -5 30
-15 30 -8 0 -15 9 -15 20 0 13 -7 20 -20 20 -11 0 -20 7 -20 15 0 8 -7 15 -15
15 -8 0 -15 9 -15 20 0 11 -7 20 -15 20 -10 0 -15 10 -15 30 0 23 -4 30 -20
30 -12 0 -20 7 -20 16 0 8 -7 22 -15 30 -8 9 -15 24 -15 35 0 10 -7 19 -15 19
-10 0 -15 10 -15 29 0 20 -6 30 -20 34 -14 4 -20 14 -20 35 0 17 -6 32 -15 36
-9 3 -15 18 -15 36 0 20 -5 30 -15 30 -11 0 -15 12 -15 50 0 43 -3 50 -20 50
-17 0 -20 7 -20 49 0 29 -5 51 -12 53 -6 2 -13 31 -16 66 -3 44 -8 62 -18 62
-12 0 -14 52 -14 300 0 260 2 300 15 300 12 0 15 14 15 65 0 49 4 67 15 71 9
4 15 20 15 43 0 51 10 81 26 81 9 0 14 12 14 35 0 24 5 35 15 35 10 0 15 11
15 35 0 24 5 35 15 35 10 0 15 10 15 31 0 22 5 32 20 36 14 4 20 14 20 34 0
19 5 29 15 29 10 0 15 11 15 35 0 24 5 35 14 35 8 0 17 14 21 30 4 17 13 30
21 30 8 0 14 9 14 20 0 11 7 20 15 20 8 0 15 7 15 15 0 8 7 15 15 15 8 0 15 9
15 20 0 13 7 20 20 20 16 0 20 7 20 30 0 20 5 30 15 30 8 0 15 9 15 20 0 11 5
20 10 20 13 0 50 37 50 50 0 6 9 10 20 10 13 0 20 7 20 20 0 12 7 20 16 20 8
0 22 7 30 15 9 8 24 15 35 15 10 0 19 7 19 15 0 8 7 15 15 15 8 0 15 9 15 20
0 11 6 20 14 20 8 0 16 7 20 15 3 8 12 15 21 15 8 0 15 7 15 15 0 10 10 15 30
15 20 0 30 5 30 15 0 10 11 15 35 15 28 0 35 4 35 20 0 16 7 20 30 20 20 0 30
5 30 15 0 8 9 15 20 15 11 0 20 7 20 15 0 10 11 15 35 15 23 0 35 5 35 14 0
14 29 26 68 26 13 0 22 6 22 15 0 11 12 15 50 15 38 0 50 4 50 15 0 12 14 15
65 15 48 0 65 3 65 14 0 19 45 26 166 26 86 0 104 3 104 15 0 12 16 15 85 15
69 0 85 -3 85 -15z"/>
</g>
</svg>
