<?xml version="1.0" encoding="UTF-8" standalone="no"?>
<!-- Created with Inkscape (http://www.inkscape.org/) -->

<svg
   xmlns:dc="http://purl.org/dc/elements/1.1/"
   xmlns:cc="http://creativecommons.org/ns#"
   xmlns:rdf="http://www.w3.org/1999/02/22-rdf-syntax-ns#"
   xmlns:svg="http://www.w3.org/2000/svg"
   xmlns="http://www.w3.org/2000/svg"
   xmlns:sodipodi="http://sodipodi.sourceforge.net/DTD/sodipodi-0.dtd"
   xmlns:inkscape="http://www.inkscape.org/namespaces/inkscape"
   width="200"
   height="200"
   viewBox="0 0 52.916674 52.916669"
   version="1.1"
   id="svg8"
   inkscape:version="0.92.2 5c3e80d, 2017-08-06"
   sodipodi:docname="favicon-web.svg"
   style="enable-background:new">
  <defs
     id="defs2" />
  <sodipodi:namedview
     id="base"
     pagecolor="#ffffff"
     bordercolor="#666666"
     borderopacity="1.0"
     inkscape:pageopacity="0.0"
     inkscape:pageshadow="2"
     inkscape:zoom="0.32"
     inkscape:cx="670.0718"
     inkscape:cy="282.12594"
     inkscape:document-units="px"
     inkscape:current-layer="layer1"
     showgrid="false"
     units="px"
     inkscape:pagecheckerboard="true"
     inkscape:window-width="1580"
     inkscape:window-height="877"
     inkscape:window-x="0"
     inkscape:window-y="1"
     inkscape:window-maximized="0"
     fit-margin-top="0"
     fit-margin-right="0"
     fit-margin-bottom="0"
     fit-margin-left="0"
     showguides="true"
     inkscape:guide-bbox="true" />
  <metadata
     id="metadata5">
    <rdf:RDF>
      <cc:Work
         rdf:about="">
        <dc:format>image/svg+xml</dc:format>
        <dc:type
           rdf:resource="http://purl.org/dc/dcmitype/StillImage" />
        <dc:title></dc:title>
      </cc:Work>
    </rdf:RDF>
  </metadata>
  <g
     inkscape:label="Layer 1"
     inkscape:groupmode="layer"
     id="layer1"
     transform="translate(29.719627,-217.62877)">
    <text
       xml:space="preserve"
       style="font-style:normal;font-weight:normal;font-size:10.58333302px;line-height:1.25;font-family:sans-serif;letter-spacing:0px;word-spacing:0px;fill:#000000;fill-opacity:1;stroke:none;stroke-width:0.26458332px;stroke-linecap:butt;stroke-linejoin:miter;stroke-opacity:1"
       x="139.22144"
       y="230.79181"
       id="text3732"><tspan
         sodipodi:role="line"
         id="tspan3730"
         x="139.22144"
         y="240.15558"
         style="stroke-width:0.26458332px" /></text>
    <rect
       style="fill:#1f1f1f;fill-opacity:1;stroke-width:0.8743273"
       id="rect3831"
       width="52.916672"
       height="52.916672"
       x="-29.719627"
       y="217.62877"
       rx="3.8267083" />
    <g
       aria-label="ZS"
       transform="matrix(0.96952964,0,0,0.96952964,-39.393351,300.76806)"
       style="font-style:normal;font-weight:normal;font-size:40px;line-height:1.25;font-family:sans-serif;letter-spacing:0px;word-spacing:0px;fill:#000000;fill-opacity:1;stroke:none;stroke-width:1px;stroke-linecap:butt;stroke-linejoin:miter;stroke-opacity:1"
       id="flowRoot3819">
      <path
         inkscape:connector-curvature="0"
         d="m 12.941484,-49.453776 v 4.96 h 24.08 v -5.28 h -15.72 l 15.32,-18.32 v -4.96 h -22.48 v 5.28 h 14.12 z"
         style="font-style:normal;font-variant:normal;font-weight:bold;font-stretch:normal;font-family:'Helvetica Neue';-inkscape-font-specification:'Helvetica Neue Bold';fill:#ffffff"
         id="path4674" />
      <path
         inkscape:connector-curvature="0"
         d="m 42.118984,-53.893776 h -2.72 q -0.12,2.64 0.68,4.52 0.84,1.88 2.36,3.08 1.52,1.2 3.68,1.8 2.16,0.56 4.68,0.56 2.52,0 4.32,-0.48 1.8,-0.44 3,-1.16 1.24,-0.76 1.92,-1.68 0.72,-0.92 1.08,-1.8 0.4,-0.92 0.48,-1.72 0.12,-0.8 0.12,-1.28 0,-1.76 -0.6,-3 -0.56,-1.24 -1.6,-2.08 -1,-0.88 -2.36,-1.44 -1.32,-0.6 -2.84,-1 l -6.96,-1.72 q -0.88,-0.2 -1.68,-0.52 -0.76,-0.32 -1.36,-0.84 -0.6,-0.52 -0.96,-1.24 -0.32,-0.76 -0.32,-1.76 0,-1.6 0.6,-2.68 0.6,-1.08 1.56,-1.72 1,-0.68 2.28,-0.96 1.32,-0.32 2.72,-0.32 1.52,0 2.88,0.44 1.4,0.4 2.44,1.24 1.08,0.8 1.72,2.04 0.68,1.2 0.76,2.84 h 2.72 q 0,-2.2 -0.88,-3.84 -0.84,-1.68 -2.28,-2.8 -1.44,-1.12 -3.36,-1.68 -1.92,-0.56 -4.04,-0.56 -3,0 -4.92,0.88 -1.92,0.84 -3.04,2.08 -1.08,1.24 -1.48,2.64 -0.4,1.4 -0.4,2.44 0,1.68 0.52,2.84 0.56,1.16 1.44,1.96 0.88,0.8 2.04,1.28 1.2,0.48 2.44,0.8 l 6.36,1.56 q 1,0.24 2.04,0.64 1.04,0.36 1.88,0.96 0.88,0.6 1.4,1.48 0.56,0.88 0.56,2.08 0,1.56 -0.76,2.68 -0.76,1.08 -1.92,1.8 -1.12,0.68 -2.44,1 -1.32,0.32 -2.44,0.32 -1.96,0 -3.68,-0.36 -1.72,-0.4 -3,-1.28 -1.24,-0.88 -1.96,-2.36 -0.72,-1.48 -0.68,-3.68 z"
         style="font-style:normal;font-variant:normal;font-weight:300;font-stretch:normal;font-family:'Helvetica Neue';-inkscape-font-specification:'Helvetica Neue Light';fill:#ffffff"
         id="path4676" />
    </g>
  </g>
</svg>
