<?xml version="1.0" encoding="UTF-8" standalone="no"?>
<!DOCTYPE svg PUBLIC "-//W3C//DTD SVG 1.1//EN" "http://www.w3.org/Graphics/SVG/1.1/DTD/svg11.dtd">
<svg width="100%" height="100%" viewBox="0 0 210 210" version="1.1" xmlns="http://www.w3.org/2000/svg" xmlns:xlink="http://www.w3.org/1999/xlink" xml:space="preserve" xmlns:serif="http://www.serif.com/" style="fill-rule:evenodd;clip-rule:evenodd;stroke-linejoin:round;stroke-miterlimit:1.41421;">
    <g id="Speaker" transform="matrix(1.01151,0,0,1.01046,-3.88704,-7.7497)">
        <g transform="matrix(1.12944,0,0,1.13209,14.2177,8.80289)">
            <path d="M141.806,7.444C141.806,5.195 139.979,3.37 137.727,3.37L27.718,3.37C25.466,3.37 23.639,5.195 23.639,7.444L23.639,174.131C23.639,176.379 25.466,178.205 27.718,178.205L137.727,178.205C139.979,178.205 141.806,176.379 141.806,174.131L141.806,7.444Z" style="fill:rgb(228,55,37);"/>
        </g>
        <g id="Holes" transform="matrix(0.841893,0,0,0.841893,17.0199,28.1289)">
            <g transform="matrix(0.417431,0,0,0.417431,61.9954,-4.57363)">
                <circle cx="109.365" cy="88.531" r="50.478" style="fill:white;"/>
            </g>
            <g transform="matrix(1,0,0,1,-1.71748,47.9316)">
                <circle cx="109.365" cy="88.531" r="50.478" style="fill:white;"/>
            </g>
        </g>
    </g>
</svg>
