<?xml version="1.0" encoding="UTF-8" standalone="no"?>
<!DOCTYPE svg PUBLIC "-//W3C//DTD SVG 1.1//EN" "http://www.w3.org/Graphics/SVG/1.1/DTD/svg11.dtd">
<svg width="100%" height="100%" viewBox="0 0 1403 329" version="1.1" xmlns="http://www.w3.org/2000/svg" xmlns:xlink="http://www.w3.org/1999/xlink" xml:space="preserve" xmlns:serif="http://www.serif.com/" style="fill-rule:evenodd;clip-rule:evenodd;stroke-linejoin:round;stroke-miterlimit:1.41421;">
    <g transform="matrix(1,0,0,1,-793.771,-246.774)">
        <path d="M1194.12,436.373L1194.12,454.229L1280.81,454.229L1280.81,435.221L1224.22,435.221L1279.37,369.269L1279.37,351.413L1198.44,351.413L1198.44,370.421L1249.28,370.421L1194.12,436.373Z" style="fill:white;fill-rule:nonzero;"/>
        <path d="M1291.04,402.677C1291.33,397.877 1292.53,393.893 1294.64,390.725C1296.75,387.557 1299.44,385.013 1302.7,383.093C1305.96,381.173 1309.64,379.805 1313.72,378.989C1317.8,378.173 1321.9,377.765 1326.03,377.765C1329.77,377.765 1333.57,378.029 1337.4,378.557C1341.25,379.085 1344.75,380.117 1347.92,381.653C1351.09,383.189 1353.68,385.325 1355.69,388.061C1357.71,390.797 1358.72,394.421 1358.72,398.933L1358.72,437.669C1358.72,441.029 1358.91,444.245 1359.29,447.317C1359.68,450.389 1360.35,452.693 1361.31,454.229L1340.57,454.229C1340.19,453.077 1339.88,451.901 1339.64,450.701C1339.4,449.501 1339.23,448.277 1339.13,447.029C1335.87,450.389 1332.03,452.741 1327.61,454.085C1323.2,455.429 1318.68,456.101 1314.08,456.101C1310.53,456.101 1307.21,455.669 1304.14,454.805C1301.07,453.941 1298.38,452.597 1296.08,450.773C1293.77,448.949 1291.97,446.645 1290.68,443.861C1289.38,441.077 1288.73,437.765 1288.73,433.925C1288.73,429.701 1289.48,426.221 1290.96,423.485C1292.45,420.749 1294.37,418.565 1296.73,416.933C1299.08,415.301 1301.77,414.077 1304.79,413.261C1307.81,412.445 1310.86,411.797 1313.93,411.317C1317.01,410.837 1320.03,410.453 1323.01,410.165C1325.98,409.877 1328.62,409.445 1330.92,408.869C1333.23,408.293 1335.05,407.453 1336.4,406.349C1337.74,405.245 1338.37,403.637 1338.27,401.525C1338.27,399.317 1337.91,397.565 1337.19,396.269C1336.47,394.973 1335.51,393.965 1334.31,393.245C1333.11,392.525 1331.72,392.045 1330.13,391.805C1328.55,391.565 1326.85,391.445 1325.02,391.445C1320.99,391.445 1317.82,392.309 1315.52,394.037C1313.21,395.765 1311.87,398.645 1311.49,402.677L1291.04,402.677ZM1338.27,417.797C1337.4,418.565 1336.33,419.165 1335.03,419.597C1333.73,420.029 1332.34,420.389 1330.85,420.677C1329.37,420.965 1327.81,421.205 1326.17,421.397C1324.54,421.589 1322.91,421.829 1321.28,422.117C1319.74,422.405 1318.23,422.789 1316.74,423.269C1315.25,423.749 1313.96,424.397 1312.85,425.213C1311.75,426.029 1310.86,427.061 1310.19,428.309C1309.52,429.557 1309.18,431.141 1309.18,433.061C1309.18,434.885 1309.52,436.421 1310.19,437.669C1310.86,438.917 1311.77,439.901 1312.92,440.621C1314.08,441.341 1315.42,441.845 1316.96,442.133C1318.49,442.421 1320.08,442.565 1321.71,442.565C1325.74,442.565 1328.86,441.893 1331.07,440.549C1333.28,439.205 1334.91,437.597 1335.96,435.725C1337.02,433.853 1337.67,431.957 1337.91,430.037C1338.15,428.117 1338.27,426.581 1338.27,425.429L1338.27,417.797Z" style="fill:white;fill-rule:nonzero;"/>
        <path d="M1425.25,405.989L1445.26,405.989C1444.97,401.189 1443.82,397.037 1441.81,393.533C1439.79,390.029 1437.17,387.101 1433.96,384.749C1430.74,382.397 1427.09,380.645 1423.01,379.493C1418.93,378.341 1414.68,377.765 1410.27,377.765C1404.22,377.765 1398.85,378.773 1394.14,380.789C1389.44,382.805 1385.45,385.613 1382.19,389.213C1378.92,392.813 1376.45,397.085 1374.77,402.029C1373.09,406.973 1372.25,412.325 1372.25,418.085C1372.25,423.653 1373.16,428.765 1374.99,433.421C1376.81,438.077 1379.36,442.085 1382.62,445.445C1385.88,448.805 1389.85,451.421 1394.5,453.293C1399.16,455.165 1404.27,456.101 1409.84,456.101C1419.73,456.101 1427.84,453.509 1434.17,448.325C1440.51,443.141 1444.35,435.605 1445.69,425.717L1425.96,425.717C1425.29,430.325 1423.64,433.997 1421,436.733C1418.36,439.469 1414.59,440.837 1409.69,440.837C1406.53,440.837 1403.84,440.117 1401.63,438.677C1399.42,437.237 1397.67,435.389 1396.37,433.133C1395.08,430.877 1394.14,428.357 1393.57,425.573C1392.99,422.789 1392.7,420.053 1392.7,417.365C1392.7,414.581 1392.99,411.773 1393.57,408.941C1394.14,406.109 1395.12,403.517 1396.52,401.165C1397.91,398.813 1399.71,396.893 1401.92,395.405C1404.12,393.917 1406.86,393.173 1410.12,393.173C1418.86,393.173 1423.9,397.445 1425.25,405.989Z" style="fill:white;fill-rule:nonzero;"/>
        <path d="M1457.21,351.413L1457.21,454.229L1477.66,454.229L1477.66,415.205C1477.66,407.621 1478.91,402.173 1481.4,398.861C1483.9,395.549 1487.93,393.893 1493.5,393.893C1498.4,393.893 1501.81,395.405 1503.73,398.429C1505.64,401.453 1506.61,406.037 1506.61,412.181L1506.61,454.229L1527.05,454.229L1527.05,408.437C1527.05,403.829 1526.64,399.629 1525.83,395.837C1525.01,392.045 1523.6,388.829 1521.58,386.189C1519.57,383.549 1516.81,381.485 1513.3,379.997C1509.8,378.509 1505.31,377.765 1499.84,377.765C1496,377.765 1492.06,378.749 1488.03,380.717C1484,382.685 1480.68,385.829 1478.09,390.149L1477.66,390.149L1477.66,351.413L1457.21,351.413Z" style="fill:white;fill-rule:nonzero;"/>
        <path d="M1541.74,402.677C1542.03,397.877 1543.23,393.893 1545.34,390.725C1547.45,387.557 1550.14,385.013 1553.4,383.093C1556.67,381.173 1560.34,379.805 1564.42,378.989C1568.5,378.173 1572.61,377.765 1576.73,377.765C1580.48,377.765 1584.27,378.029 1588.11,378.557C1591.95,379.085 1595.45,380.117 1598.62,381.653C1601.79,383.189 1604.38,385.325 1606.4,388.061C1608.41,390.797 1609.42,394.421 1609.42,398.933L1609.42,437.669C1609.42,441.029 1609.61,444.245 1610,447.317C1610.38,450.389 1611.05,452.693 1612.01,454.229L1591.28,454.229C1590.89,453.077 1590.58,451.901 1590.34,450.701C1590.1,449.501 1589.93,448.277 1589.84,447.029C1586.57,450.389 1582.73,452.741 1578.32,454.085C1573.9,455.429 1569.39,456.101 1564.78,456.101C1561.23,456.101 1557.92,455.669 1554.85,454.805C1551.77,453.941 1549.09,452.597 1546.78,450.773C1544.48,448.949 1542.68,446.645 1541.38,443.861C1540.09,441.077 1539.44,437.765 1539.44,433.925C1539.44,429.701 1540.18,426.221 1541.67,423.485C1543.16,420.749 1545.08,418.565 1547.43,416.933C1549.78,415.301 1552.47,414.077 1555.49,413.261C1558.52,412.445 1561.57,411.797 1564.64,411.317C1567.71,410.837 1570.73,410.453 1573.71,410.165C1576.68,409.877 1579.33,409.445 1581.63,408.869C1583.93,408.293 1585.76,407.453 1587.1,406.349C1588.44,405.245 1589.07,403.637 1588.97,401.525C1588.97,399.317 1588.61,397.565 1587.89,396.269C1587.17,394.973 1586.21,393.965 1585.01,393.245C1583.81,392.525 1582.42,392.045 1580.84,391.805C1579.25,391.565 1577.55,391.445 1575.73,391.445C1571.69,391.445 1568.53,392.309 1566.22,394.037C1563.92,395.765 1562.57,398.645 1562.19,402.677L1541.74,402.677ZM1588.97,417.797C1588.11,418.565 1587.03,419.165 1585.73,419.597C1584.44,420.029 1583.05,420.389 1581.56,420.677C1580.07,420.965 1578.51,421.205 1576.88,421.397C1575.25,421.589 1573.61,421.829 1571.98,422.117C1570.44,422.405 1568.93,422.789 1567.44,423.269C1565.96,423.749 1564.66,424.397 1563.56,425.213C1562.45,426.029 1561.57,427.061 1560.89,428.309C1560.22,429.557 1559.88,431.141 1559.88,433.061C1559.88,434.885 1560.22,436.421 1560.89,437.669C1561.57,438.917 1562.48,439.901 1563.63,440.621C1564.78,441.341 1566.12,441.845 1567.66,442.133C1569.2,442.421 1570.78,442.565 1572.41,442.565C1576.44,442.565 1579.57,441.893 1581.77,440.549C1583.98,439.205 1585.61,437.597 1586.67,435.725C1587.73,433.853 1588.37,431.957 1588.61,430.037C1588.85,428.117 1588.97,426.581 1588.97,425.429L1588.97,417.797Z" style="fill:white;fill-rule:nonzero;"/>
        <path d="M1625.26,379.781L1625.26,454.229L1645.71,454.229L1645.71,420.677C1645.71,417.317 1646.05,414.197 1646.72,411.317C1647.39,408.437 1648.52,405.917 1650.1,403.757C1651.68,401.597 1653.77,399.893 1656.37,398.645C1658.96,397.397 1662.12,396.773 1665.87,396.773C1667.12,396.773 1668.41,396.845 1669.76,396.989C1671.1,397.133 1672.25,397.301 1673.21,397.493L1673.21,378.485C1671.58,378.005 1670.09,377.765 1668.75,377.765C1666.16,377.765 1663.66,378.149 1661.26,378.917C1658.86,379.685 1656.61,380.765 1654.49,382.157C1652.38,383.549 1650.51,385.229 1648.88,387.197C1647.25,389.165 1645.95,391.301 1644.99,393.605L1644.7,393.605L1644.7,379.781L1625.26,379.781Z" style="fill:white;fill-rule:nonzero;"/>
        <path d="M1718,463.445L1749.1,379.781L1727.93,379.781L1711.66,430.757L1711.37,430.757L1694.53,379.781L1672.78,379.781L1698.85,449.621C1699.42,451.061 1699.71,452.597 1699.71,454.229C1699.71,456.437 1699.06,458.453 1697.77,460.277C1696.47,462.101 1694.48,463.157 1691.79,463.445C1689.77,463.541 1687.76,463.493 1685.74,463.301C1683.73,463.109 1681.76,462.917 1679.84,462.725L1679.84,479.573C1681.95,479.765 1684.04,479.933 1686.1,480.077C1688.16,480.221 1690.25,480.293 1692.37,480.293C1699.37,480.293 1704.85,478.997 1708.78,476.405C1712.72,473.813 1715.79,469.493 1718,463.445Z" style="fill:white;fill-rule:nonzero;"/>
        <path d="M1864.44,380.789C1864.25,376.373 1863.32,372.533 1861.64,369.269C1859.96,366.005 1857.68,363.269 1854.8,361.061C1851.92,358.853 1848.49,357.197 1844.5,356.093C1840.52,354.989 1836.17,354.437 1831.47,354.437C1828.59,354.437 1825.49,354.773 1822.18,355.445C1818.87,356.117 1815.8,357.293 1812.97,358.973C1810.13,360.653 1807.81,362.909 1805.98,365.741C1804.16,368.573 1803.25,372.101 1803.25,376.325C1803.25,380.453 1804.25,383.813 1806.27,386.405C1808.29,388.997 1810.92,391.085 1814.19,392.669C1817.45,394.253 1821.2,395.525 1825.42,396.485C1829.64,397.445 1833.92,398.357 1838.24,399.221C1842.65,400.085 1846.95,401.117 1851.12,402.317C1855.3,403.517 1859.05,405.149 1862.36,407.213C1865.67,409.277 1868.33,411.965 1870.35,415.277C1872.37,418.589 1873.37,422.741 1873.37,427.733C1873.37,433.109 1872.22,437.621 1869.92,441.269C1867.61,444.917 1864.71,447.893 1861.2,450.197C1857.7,452.501 1853.81,454.157 1849.54,455.165C1845.27,456.173 1841.16,456.677 1837.23,456.677C1831.18,456.677 1825.52,456.029 1820.24,454.733C1814.96,453.437 1810.35,451.325 1806.41,448.397C1802.48,445.469 1799.38,441.701 1797.12,437.093C1794.87,432.485 1793.79,426.869 1793.88,420.245L1800.22,420.245C1799.93,425.909 1800.75,430.685 1802.67,434.573C1804.59,438.461 1807.25,441.653 1810.66,444.149C1814.07,446.645 1818.08,448.445 1822.68,449.549C1827.29,450.653 1832.14,451.205 1837.23,451.205C1840.3,451.205 1843.59,450.821 1847.09,450.053C1850.6,449.285 1853.81,447.989 1856.74,446.165C1859.67,444.341 1862.12,441.941 1864.09,438.965C1866.05,435.989 1867.04,432.245 1867.04,427.733C1867.04,423.413 1866.03,419.885 1864.01,417.149C1862,414.413 1859.33,412.205 1856.02,410.525C1852.71,408.845 1848.97,407.501 1844.79,406.493C1840.61,405.485 1836.32,404.549 1831.9,403.685C1827.58,402.821 1823.31,401.813 1819.09,400.661C1814.86,399.509 1811.12,397.949 1807.85,395.981C1804.59,394.013 1801.95,391.469 1799.93,388.349C1797.92,385.229 1796.91,381.221 1796.91,376.325C1796.91,371.429 1797.94,367.229 1800.01,363.725C1802.07,360.221 1804.76,357.389 1808.07,355.229C1811.38,353.069 1815.1,351.485 1819.23,350.477C1823.36,349.469 1827.44,348.965 1831.47,348.965C1836.85,348.965 1841.86,349.565 1846.52,350.765C1851.17,351.965 1855.25,353.837 1858.76,356.381C1862.26,358.925 1865.07,362.213 1867.18,366.245C1869.29,370.277 1870.49,375.125 1870.78,380.789L1864.44,380.789Z" style="fill:white;fill-rule:nonzero;"/>
        <path d="M1889.21,417.941L1889.21,418.805C1889.21,423.125 1889.79,427.253 1890.94,431.189C1892.09,435.125 1893.8,438.581 1896.05,441.557C1898.31,444.533 1901.14,446.885 1904.55,448.613C1907.96,450.341 1911.92,451.205 1916.43,451.205C1923.82,451.205 1929.68,449.261 1934,445.373C1938.32,441.485 1941.29,436.085 1942.92,429.173L1948.4,429.173C1946.77,437.813 1943.24,444.437 1937.81,449.045C1932.39,453.653 1925.21,455.957 1916.29,455.957C1910.81,455.957 1906.04,454.973 1901.96,453.005C1897.88,451.037 1894.47,448.349 1891.73,444.941C1889,441.533 1886.96,437.501 1885.61,432.845C1884.27,428.189 1883.6,423.173 1883.6,417.797C1883.6,412.613 1884.29,407.645 1885.68,402.893C1887.08,398.141 1889.16,393.965 1891.95,390.365C1894.73,386.765 1898.21,383.885 1902.39,381.725C1906.57,379.565 1911.49,378.485 1917.15,378.485C1922.33,378.485 1926.92,379.445 1930.9,381.365C1934.88,383.285 1938.22,385.901 1940.91,389.213C1943.6,392.525 1945.64,396.365 1947.03,400.733C1948.42,405.101 1949.12,409.781 1949.12,414.773C1949.12,415.253 1949.09,415.805 1949.05,416.429C1949,417.053 1948.97,417.557 1948.97,417.941L1889.21,417.941ZM1943.5,413.189C1943.31,409.157 1942.64,405.341 1941.49,401.741C1940.33,398.141 1938.63,394.973 1936.37,392.237C1934.12,389.501 1931.38,387.317 1928.16,385.685C1924.95,384.053 1921.28,383.237 1917.15,383.237C1912.73,383.237 1908.85,384.077 1905.49,385.757C1902.12,387.437 1899.29,389.645 1896.99,392.381C1894.68,395.117 1892.91,398.309 1891.66,401.957C1890.41,405.605 1889.64,409.349 1889.36,413.189L1943.5,413.189Z" style="fill:white;fill-rule:nonzero;"/>
        <path d="M2022.99,380.213L2022.99,450.341C2022.99,454.469 2022.51,458.477 2021.55,462.365C2020.59,466.253 2018.93,469.685 2016.58,472.661C2014.23,475.637 2010.99,478.013 2006.86,479.789C2002.73,481.565 1997.5,482.453 1991.16,482.453C1987.23,482.453 1983.53,482.045 1980.08,481.229C1976.62,480.413 1973.6,479.117 1971.01,477.341C1968.41,475.565 1966.33,473.213 1964.74,470.285C1963.16,467.357 1962.27,463.733 1962.08,459.413L1967.55,459.413C1967.84,462.677 1968.65,465.461 1970,467.765C1971.34,470.069 1973.09,471.965 1975.25,473.453C1977.41,474.941 1979.84,476.021 1982.53,476.693C1985.21,477.365 1988.09,477.701 1991.16,477.701C1996.25,477.701 2000.5,476.933 2003.91,475.397C2007.32,473.861 2010.03,471.869 2012.05,469.421C2014.06,466.973 2015.48,464.189 2016.29,461.069C2017.11,457.949 2017.52,454.805 2017.52,451.637L2017.52,434.645L2017.23,434.645C2014.64,440.117 2011.11,444.293 2006.64,447.173C2002.18,450.053 1996.78,451.493 1990.44,451.493C1984.97,451.493 1980.25,450.557 1976.26,448.685C1972.28,446.813 1968.97,444.221 1966.33,440.909C1963.68,437.597 1961.72,433.733 1960.42,429.317C1959.12,424.901 1958.48,420.101 1958.48,414.917C1958.48,410.021 1959.17,405.365 1960.57,400.949C1961.96,396.533 1964,392.669 1966.68,389.357C1969.37,386.045 1972.71,383.405 1976.69,381.437C1980.68,379.469 1985.26,378.485 1990.44,378.485C1996.3,378.485 2001.7,379.973 2006.64,382.949C2011.59,385.925 2015.12,390.149 2017.23,395.621L2017.52,395.621L2017.52,380.213L2022.99,380.213ZM1990.44,383.237C1985.93,383.237 1982.02,384.149 1978.71,385.973C1975.4,387.797 1972.66,390.197 1970.5,393.173C1968.34,396.149 1966.71,399.533 1965.61,403.325C1964.5,407.117 1963.95,410.981 1963.95,414.917C1963.95,419.237 1964.5,423.341 1965.61,427.229C1966.71,431.117 1968.39,434.501 1970.64,437.381C1972.9,440.261 1975.68,442.541 1979,444.221C1982.31,445.901 1986.12,446.741 1990.44,446.741C1994.96,446.741 1998.89,445.877 2002.25,444.149C2005.61,442.421 2008.42,440.069 2010.68,437.093C2012.93,434.117 2014.61,430.733 2015.72,426.941C2016.82,423.149 2017.37,419.141 2017.37,414.917C2017.37,410.789 2016.82,406.805 2015.72,402.965C2014.61,399.125 2012.93,395.741 2010.68,392.813C2008.42,389.885 2005.61,387.557 2002.25,385.829C1998.89,384.101 1994.96,383.237 1990.44,383.237Z" style="fill:white;fill-rule:nonzero;"/>
        <path d="M2097.72,454.229L2092.25,454.229L2092.25,438.389L2091.97,438.389C2091.01,441.173 2089.64,443.645 2087.86,445.805C2086.09,447.965 2084.02,449.813 2081.67,451.349C2079.32,452.885 2076.75,454.037 2073.97,454.805C2071.18,455.573 2068.35,455.957 2065.47,455.957C2061.15,455.957 2057.48,455.429 2054.45,454.373C2051.43,453.317 2048.96,451.925 2047.04,450.197C2045.12,448.469 2043.61,446.525 2042.5,444.365C2041.4,442.205 2040.61,440.021 2040.12,437.813C2039.64,435.605 2039.36,433.469 2039.26,431.405C2039.16,429.341 2039.12,427.541 2039.12,426.005L2039.12,380.213L2044.59,380.213L2044.59,427.013C2044.59,428.933 2044.73,431.261 2045.02,433.997C2045.31,436.733 2046.15,439.373 2047.54,441.917C2048.93,444.461 2051.02,446.645 2053.8,448.469C2056.59,450.293 2060.53,451.205 2065.61,451.205C2069.74,451.205 2073.46,450.437 2076.77,448.901C2080.09,447.365 2082.89,445.229 2085.2,442.493C2087.5,439.757 2089.25,436.493 2090.45,432.701C2091.65,428.909 2092.25,424.757 2092.25,420.245L2092.25,380.213L2097.72,380.213L2097.72,454.229Z" style="fill:white;fill-rule:nonzero;"/>
        <path d="M2115.15,366.245L2115.15,351.413L2120.62,351.413L2120.62,366.245L2115.15,366.245ZM2115.15,454.229L2115.15,380.213L2120.62,380.213L2120.62,454.229L2115.15,454.229Z" style="fill:white;fill-rule:nonzero;"/>
        <path d="M2138.05,380.213L2143.52,380.213L2143.52,396.053L2143.8,396.053C2144.76,393.269 2146.13,390.797 2147.91,388.637C2149.68,386.477 2151.75,384.629 2154.1,383.093C2156.45,381.557 2159.02,380.405 2161.8,379.637C2164.59,378.869 2167.42,378.485 2170.3,378.485C2174.62,378.485 2178.29,379.013 2181.32,380.069C2184.34,381.125 2186.81,382.517 2188.73,384.245C2190.65,385.973 2192.16,387.917 2193.27,390.077C2194.37,392.237 2195.16,394.421 2195.64,396.629C2196.12,398.837 2196.41,400.973 2196.51,403.037C2196.61,405.101 2196.65,406.901 2196.65,408.437L2196.65,454.229L2191.18,454.229L2191.18,407.429C2191.18,405.605 2191.04,403.301 2190.75,400.517C2190.46,397.733 2189.62,395.069 2188.23,392.525C2186.84,389.981 2184.72,387.797 2181.89,385.973C2179.06,384.149 2175.15,383.237 2170.16,383.237C2165.93,383.237 2162.19,384.005 2158.93,385.541C2155.66,387.077 2152.88,389.213 2150.57,391.949C2148.27,394.685 2146.52,397.949 2145.32,401.741C2144.12,405.533 2143.52,409.685 2143.52,414.197L2143.52,454.229L2138.05,454.229L2138.05,380.213Z" style="fill:white;fill-rule:nonzero;"/>
    </g>
    <g id="Logo">
        <g id="Background" transform="matrix(1.65,0,0,1.65,185.338,-1357.18)">
            <path d="M87.674,840.716C87.674,830.681 79.527,822.534 69.492,822.534L-94.144,822.534C-104.179,822.534 -112.326,830.681 -112.326,840.716L-112.326,1004.35C-112.326,1014.39 -104.179,1022.53 -94.144,1022.53L69.492,1022.53C79.527,1022.53 87.674,1014.39 87.674,1004.35L87.674,840.716Z" style="fill:rgb(31,31,31);"/>
            <path d="M69.61,822.534L69.727,822.535L69.844,822.537L69.961,822.54L70.078,822.543L70.194,822.547L70.311,822.552L70.427,822.558L70.543,822.564L70.659,822.571L70.775,822.578L70.89,822.587L71.005,822.596L71.12,822.606L71.235,822.616L71.35,822.628L71.464,822.64L71.579,822.652L71.693,822.666L71.806,822.68L71.92,822.695L72.033,822.71L72.146,822.727L72.259,822.743L72.372,822.761L72.485,822.779L72.597,822.798L72.709,822.818L72.821,822.838L72.932,822.859L73.043,822.881L73.154,822.903L73.265,822.927L73.376,822.95L73.486,822.975L73.596,823L73.706,823.025L73.815,823.052L73.925,823.079L74.034,823.107L74.142,823.135L74.251,823.164L74.359,823.194L74.467,823.224L74.575,823.255L74.682,823.287L74.789,823.319L74.896,823.352L75.003,823.385L75.109,823.42L75.215,823.454L75.321,823.49L75.426,823.526L75.531,823.563L75.636,823.6L75.741,823.638L75.845,823.676L75.949,823.716L76.053,823.755L76.156,823.796L76.259,823.837L76.362,823.878L76.464,823.921L76.566,823.964L76.668,824.007L76.77,824.051L76.871,824.096L76.972,824.141L77.072,824.187L77.172,824.233L77.272,824.28L77.372,824.328L77.471,824.376L77.57,824.425L77.668,824.474L77.766,824.524L77.864,824.575L77.962,824.626L78.059,824.677L78.156,824.73L78.252,824.782L78.348,824.836L78.444,824.89L78.539,824.944L78.634,824.999L78.729,825.055L78.823,825.111L78.917,825.168L79.011,825.225L79.104,825.283L79.196,825.341L79.289,825.4L79.381,825.459L79.473,825.519L79.564,825.58L79.655,825.641L79.745,825.702L79.835,825.764L79.925,825.827L80.014,825.89L80.103,825.954L80.192,826.018L80.28,826.083L80.368,826.148L80.455,826.214L80.542,826.28L80.628,826.347L80.714,826.414L80.8,826.482L80.885,826.55L80.97,826.619L81.055,826.688L81.139,826.758L81.222,826.828L81.305,826.899L81.388,826.97L81.47,827.041L81.552,827.114L81.633,827.186L81.714,827.259L81.795,827.333L81.875,827.407L81.955,827.482L82.034,827.557L82.113,827.632L82.191,827.708L82.269,827.785L82.346,827.862L82.423,827.939L82.499,828.017L82.575,828.095L82.651,828.174L82.726,828.253L82.8,828.333L82.875,828.413L82.948,828.493L83.021,828.574L83.094,828.656L83.166,828.737L83.238,828.82L83.309,828.902L83.38,828.986L83.45,829.069L83.52,829.153L83.589,829.238L83.658,829.322L83.726,829.408L83.794,829.493L83.861,829.579L83.928,829.666L83.994,829.753L84.06,829.84L84.125,829.928L84.19,830.016L84.254,830.104L84.318,830.193L84.381,830.283L84.443,830.372L84.505,830.462L84.567,830.553L84.628,830.644L84.688,830.735L84.748,830.827L84.808,830.919L84.867,831.011L84.925,831.104L84.983,831.197L85.04,831.291L85.097,831.385L85.153,831.479L85.208,831.574L85.264,831.669L85.318,831.764L85.372,831.86L85.425,831.956L85.478,832.052L85.53,832.149L85.582,832.246L85.633,832.343L85.684,832.441L85.733,832.539L85.783,832.638L85.832,832.737L85.88,832.836L85.927,832.936L85.974,833.035L86.021,833.136L86.067,833.236L86.112,833.337L86.157,833.438L86.201,833.54L86.244,833.641L86.287,833.743L86.329,833.846L86.371,833.949L86.412,834.052L86.452,834.155L86.492,834.259L86.531,834.363L86.57,834.467L86.608,834.571L86.645,834.676L86.682,834.781L86.718,834.887L86.753,834.993L86.788,835.099L86.822,835.205L86.856,835.311L86.889,835.418L86.921,835.525L86.953,835.633L86.984,835.741L87.014,835.848L87.044,835.957L87.073,836.065L87.101,836.174L87.129,836.283L87.156,836.392L87.182,836.502L87.208,836.612L87.233,836.722L87.257,836.832L87.281,836.943L87.304,837.053L87.327,837.164L87.348,837.276L87.369,837.387L87.39,837.499L87.409,837.611L87.428,837.723L87.447,837.836L87.464,837.948L87.481,838.061L87.497,838.174L87.513,838.288L87.528,838.401L87.542,838.515L87.555,838.629L87.568,838.743L87.58,838.858L87.591,838.972L87.602,839.087L87.612,839.202L87.621,839.318L87.629,839.433L87.637,839.549L87.644,839.665L87.65,839.781L87.656,839.897L87.661,840.013L87.665,840.13L87.668,840.247L87.671,840.364L87.672,840.481L87.673,840.598L87.674,840.716L87.674,1004.35L87.673,1004.47L87.672,1004.59L87.671,1004.7L87.668,1004.82L87.665,1004.94L87.661,1005.05L87.656,1005.17L87.65,1005.29L87.644,1005.4L87.637,1005.52L87.629,1005.63L87.621,1005.75L87.612,1005.87L87.602,1005.98L87.591,1006.1L87.58,1006.21L87.568,1006.32L87.555,1006.44L87.542,1006.55L87.528,1006.67L87.513,1006.78L87.497,1006.89L87.481,1007.01L87.464,1007.12L87.447,1007.23L87.428,1007.35L87.409,1007.46L87.39,1007.57L87.369,1007.68L87.348,1007.79L87.327,1007.9L87.304,1008.01L87.281,1008.12L87.257,1008.24L87.233,1008.35L87.208,1008.46L87.182,1008.57L87.156,1008.68L87.129,1008.78L87.101,1008.89L87.073,1009L87.044,1009.11L87.014,1009.22L86.984,1009.33L86.953,1009.44L86.921,1009.54L86.889,1009.65L86.856,1009.76L86.822,1009.86L86.788,1009.97L86.753,1010.08L86.718,1010.18L86.682,1010.29L86.645,1010.39L86.608,1010.5L86.57,1010.6L86.531,1010.71L86.492,1010.81L86.452,1010.91L86.412,1011.02L86.371,1011.12L86.329,1011.22L86.287,1011.32L86.244,1011.43L86.201,1011.53L86.157,1011.63L86.112,1011.73L86.067,1011.83L86.021,1011.93L85.974,1012.03L85.927,1012.13L85.88,1012.23L85.832,1012.33L85.783,1012.43L85.733,1012.53L85.684,1012.63L85.633,1012.72L85.582,1012.82L85.53,1012.92L85.478,1013.02L85.425,1013.11L85.372,1013.21L85.318,1013.3L85.264,1013.4L85.208,1013.49L85.153,1013.59L85.097,1013.68L85.04,1013.78L84.983,1013.87L84.925,1013.96L84.867,1014.06L84.808,1014.15L84.748,1014.24L84.688,1014.33L84.628,1014.42L84.567,1014.51L84.505,1014.61L84.443,1014.7L84.381,1014.78L84.318,1014.87L84.254,1014.96L84.19,1015.05L84.125,1015.14L84.06,1015.23L83.994,1015.32L83.928,1015.4L83.861,1015.49L83.794,1015.57L83.726,1015.66L83.658,1015.75L83.589,1015.83L83.52,1015.92L83.45,1016L83.38,1016.08L83.309,1016.17L83.238,1016.25L83.166,1016.33L83.094,1016.41L83.021,1016.49L82.948,1016.57L82.875,1016.65L82.8,1016.74L82.726,1016.82L82.651,1016.89L82.575,1016.97L82.499,1017.05L82.423,1017.13L82.346,1017.21L82.269,1017.28L82.191,1017.36L82.113,1017.44L82.034,1017.51L81.955,1017.59L81.875,1017.66L81.795,1017.74L81.714,1017.81L81.633,1017.88L81.552,1017.95L81.47,1018.03L81.388,1018.1L81.305,1018.17L81.222,1018.24L81.139,1018.31L81.055,1018.38L80.97,1018.45L80.885,1018.52L80.8,1018.59L80.714,1018.65L80.628,1018.72L80.542,1018.79L80.455,1018.85L80.368,1018.92L80.28,1018.99L80.192,1019.05L80.103,1019.11L80.014,1019.18L79.925,1019.24L79.835,1019.3L79.745,1019.37L79.655,1019.43L79.564,1019.49L79.473,1019.55L79.381,1019.61L79.289,1019.67L79.196,1019.73L79.104,1019.78L79.011,1019.84L78.917,1019.9L78.823,1019.96L78.729,1020.01L78.634,1020.07L78.539,1020.12L78.444,1020.18L78.348,1020.23L78.252,1020.28L78.156,1020.34L78.059,1020.39L77.962,1020.44L77.864,1020.49L77.766,1020.54L77.668,1020.59L77.57,1020.64L77.471,1020.69L77.372,1020.74L77.272,1020.79L77.172,1020.83L77.072,1020.88L76.972,1020.93L76.871,1020.97L76.77,1021.02L76.668,1021.06L76.566,1021.1L76.464,1021.15L76.362,1021.19L76.259,1021.23L76.156,1021.27L76.053,1021.31L75.949,1021.35L75.845,1021.39L75.741,1021.43L75.636,1021.47L75.531,1021.5L75.426,1021.54L75.321,1021.58L75.215,1021.61L75.109,1021.65L75.003,1021.68L74.896,1021.72L74.789,1021.75L74.682,1021.78L74.575,1021.81L74.467,1021.84L74.359,1021.87L74.251,1021.9L74.142,1021.93L74.034,1021.96L73.925,1021.99L73.815,1022.02L73.706,1022.04L73.596,1022.07L73.486,1022.09L73.376,1022.12L73.265,1022.14L73.154,1022.16L73.043,1022.19L72.932,1022.21L72.821,1022.23L72.709,1022.25L72.597,1022.27L72.485,1022.29L72.372,1022.31L72.259,1022.32L72.146,1022.34L72.033,1022.36L71.92,1022.37L71.806,1022.39L71.693,1022.4L71.579,1022.42L71.464,1022.43L71.35,1022.44L71.235,1022.45L71.12,1022.46L71.005,1022.47L70.89,1022.48L70.775,1022.49L70.659,1022.5L70.543,1022.5L70.427,1022.51L70.311,1022.52L70.194,1022.52L70.078,1022.52L69.961,1022.53L69.844,1022.53L69.727,1022.53L69.61,1022.53L69.492,1022.53L-94.144,1022.53L-94.262,1022.53L-94.379,1022.53L-94.496,1022.53L-94.613,1022.53L-94.73,1022.52L-94.847,1022.52L-94.963,1022.52L-95.079,1022.51L-95.195,1022.5L-95.311,1022.5L-95.427,1022.49L-95.542,1022.48L-95.658,1022.47L-95.773,1022.46L-95.888,1022.45L-96.002,1022.44L-96.117,1022.43L-96.231,1022.42L-96.345,1022.4L-96.459,1022.39L-96.572,1022.37L-96.686,1022.36L-96.799,1022.34L-96.912,1022.32L-97.024,1022.31L-97.137,1022.29L-97.249,1022.27L-97.361,1022.25L-97.473,1022.23L-97.584,1022.21L-97.696,1022.19L-97.807,1022.16L-97.917,1022.14L-98.028,1022.12L-98.138,1022.09L-98.248,1022.07L-98.358,1022.04L-98.468,1022.02L-98.577,1021.99L-98.686,1021.96L-98.795,1021.93L-98.903,1021.9L-99.011,1021.87L-99.119,1021.84L-99.227,1021.81L-99.335,1021.78L-99.442,1021.75L-99.549,1021.72L-99.655,1021.68L-99.761,1021.65L-99.867,1021.61L-99.973,1021.58L-100.079,1021.54L-100.184,1021.5L-100.289,1021.47L-100.393,1021.43L-100.497,1021.39L-100.601,1021.35L-100.705,1021.31L-100.808,1021.27L-100.911,1021.23L-101.014,1021.19L-101.117,1021.15L-101.219,1021.1L-101.32,1021.06L-101.422,1021.02L-101.523,1020.97L-101.624,1020.93L-101.724,1020.88L-101.825,1020.83L-101.924,1020.79L-102.024,1020.74L-102.123,1020.69L-102.222,1020.64L-102.32,1020.59L-102.419,1020.54L-102.516,1020.49L-102.614,1020.44L-102.711,1020.39L-102.808,1020.34L-102.904,1020.28L-103,1020.23L-103.096,1020.18L-103.191,1020.12L-103.286,1020.07L-103.381,1020.01L-103.475,1019.96L-103.569,1019.9L-103.663,1019.84L-103.756,1019.78L-103.849,1019.73L-103.941,1019.67L-104.033,1019.61L-104.125,1019.55L-104.216,1019.49L-104.307,1019.43L-104.397,1019.37L-104.488,1019.3L-104.577,1019.24L-104.667,1019.18L-104.756,1019.11L-104.844,1019.05L-104.932,1018.99L-105.02,1018.92L-105.107,1018.85L-105.194,1018.79L-105.281,1018.72L-105.367,1018.65L-105.452,1018.59L-105.538,1018.52L-105.622,1018.45L-105.707,1018.38L-105.791,1018.31L-105.874,1018.24L-105.958,1018.17L-106.04,1018.1L-106.122,1018.03L-106.204,1017.95L-106.286,1017.88L-106.367,1017.81L-106.447,1017.74L-106.527,1017.66L-106.607,1017.59L-106.686,1017.51L-106.765,1017.44L-106.843,1017.36L-106.921,1017.28L-106.998,1017.21L-107.075,1017.13L-107.152,1017.05L-107.228,1016.97L-107.303,1016.89L-107.378,1016.82L-107.453,1016.74L-107.527,1016.65L-107.6,1016.57L-107.674,1016.49L-107.746,1016.41L-107.818,1016.33L-107.89,1016.25L-107.961,1016.17L-108.032,1016.08L-108.102,1016L-108.172,1015.92L-108.241,1015.83L-108.31,1015.75L-108.378,1015.66L-108.446,1015.57L-108.513,1015.49L-108.58,1015.4L-108.646,1015.32L-108.712,1015.23L-108.777,1015.14L-108.842,1015.05L-108.906,1014.96L-108.97,1014.87L-109.033,1014.78L-109.096,1014.7L-109.158,1014.61L-109.219,1014.51L-109.28,1014.42L-109.341,1014.33L-109.401,1014.24L-109.46,1014.15L-109.519,1014.06L-109.577,1013.96L-109.635,1013.87L-109.692,1013.78L-109.749,1013.68L-109.805,1013.59L-109.861,1013.49L-109.916,1013.4L-109.97,1013.3L-110.024,1013.21L-110.078,1013.11L-110.13,1013.02L-110.183,1012.92L-110.234,1012.82L-110.285,1012.72L-110.336,1012.63L-110.386,1012.53L-110.435,1012.43L-110.484,1012.33L-110.532,1012.23L-110.58,1012.13L-110.627,1012.03L-110.673,1011.93L-110.719,1011.83L-110.764,1011.73L-110.809,1011.63L-110.853,1011.53L-110.896,1011.43L-110.939,1011.32L-110.981,1011.22L-111.023,1011.12L-111.064,1011.02L-111.105,1010.91L-111.144,1010.81L-111.184,1010.71L-111.222,1010.6L-111.26,1010.5L-111.297,1010.39L-111.334,1010.29L-111.37,1010.18L-111.406,1010.08L-111.44,1009.97L-111.475,1009.86L-111.508,1009.76L-111.541,1009.65L-111.573,1009.54L-111.605,1009.44L-111.636,1009.33L-111.666,1009.22L-111.696,1009.11L-111.725,1009L-111.753,1008.89L-111.781,1008.78L-111.808,1008.68L-111.834,1008.57L-111.86,1008.46L-111.885,1008.35L-111.91,1008.24L-111.933,1008.12L-111.956,1008.01L-111.979,1007.9L-112.001,1007.79L-112.022,1007.68L-112.042,1007.57L-112.062,1007.46L-112.081,1007.35L-112.099,1007.23L-112.116,1007.12L-112.133,1007.01L-112.15,1006.89L-112.165,1006.78L-112.18,1006.67L-112.194,1006.55L-112.207,1006.44L-112.22,1006.32L-112.232,1006.21L-112.243,1006.1L-112.254,1005.98L-112.264,1005.87L-112.273,1005.75L-112.282,1005.63L-112.289,1005.52L-112.296,1005.4L-112.302,1005.29L-112.308,1005.17L-112.313,1005.05L-112.317,1004.94L-112.32,1004.82L-112.323,1004.7L-112.325,1004.59L-112.326,1004.47L-112.326,1004.35L-112.326,840.716L-112.326,840.598L-112.325,840.481L-112.323,840.364L-112.32,840.247L-112.317,840.13L-112.313,840.013L-112.308,839.897L-112.302,839.781L-112.296,839.665L-112.289,839.549L-112.282,839.433L-112.273,839.318L-112.264,839.202L-112.254,839.087L-112.243,838.972L-112.232,838.858L-112.22,838.743L-112.207,838.629L-112.194,838.515L-112.18,838.401L-112.165,838.288L-112.15,838.174L-112.133,838.061L-112.116,837.948L-112.099,837.836L-112.081,837.723L-112.062,837.611L-112.042,837.499L-112.022,837.387L-112.001,837.276L-111.979,837.164L-111.956,837.053L-111.933,836.943L-111.91,836.832L-111.885,836.722L-111.86,836.612L-111.834,836.502L-111.808,836.392L-111.781,836.283L-111.753,836.174L-111.725,836.065L-111.696,835.957L-111.666,835.848L-111.636,835.741L-111.605,835.633L-111.573,835.525L-111.541,835.418L-111.508,835.311L-111.475,835.205L-111.44,835.099L-111.406,834.993L-111.37,834.887L-111.334,834.781L-111.297,834.676L-111.26,834.571L-111.222,834.467L-111.184,834.363L-111.144,834.259L-111.105,834.155L-111.064,834.052L-111.023,833.949L-110.981,833.846L-110.939,833.743L-110.896,833.641L-110.853,833.54L-110.809,833.438L-110.764,833.337L-110.719,833.236L-110.673,833.136L-110.627,833.035L-110.58,832.936L-110.532,832.836L-110.484,832.737L-110.435,832.638L-110.386,832.539L-110.336,832.441L-110.285,832.343L-110.234,832.246L-110.183,832.149L-110.13,832.052L-110.078,831.956L-110.024,831.86L-109.97,831.764L-109.916,831.669L-109.861,831.574L-109.805,831.479L-109.749,831.385L-109.692,831.291L-109.635,831.197L-109.577,831.104L-109.519,831.011L-109.46,830.919L-109.401,830.827L-109.341,830.735L-109.28,830.644L-109.219,830.553L-109.158,830.462L-109.096,830.372L-109.033,830.283L-108.97,830.193L-108.906,830.104L-108.842,830.016L-108.777,829.928L-108.712,829.84L-108.646,829.753L-108.58,829.666L-108.513,829.579L-108.446,829.493L-108.378,829.408L-108.31,829.322L-108.241,829.238L-108.172,829.153L-108.102,829.069L-108.032,828.986L-107.961,828.902L-107.89,828.82L-107.818,828.737L-107.746,828.656L-107.674,828.574L-107.6,828.493L-107.527,828.413L-107.453,828.333L-107.378,828.253L-107.303,828.174L-107.228,828.095L-107.152,828.017L-107.075,827.939L-106.998,827.862L-106.921,827.785L-106.843,827.708L-106.765,827.632L-106.686,827.557L-106.607,827.482L-106.527,827.407L-106.447,827.333L-106.367,827.259L-106.286,827.186L-106.204,827.114L-106.122,827.041L-106.04,826.97L-105.958,826.899L-105.874,826.828L-105.791,826.758L-105.707,826.688L-105.622,826.619L-105.538,826.55L-105.452,826.482L-105.367,826.414L-105.281,826.347L-105.194,826.28L-105.107,826.214L-105.02,826.148L-104.932,826.083L-104.844,826.018L-104.756,825.954L-104.667,825.89L-104.577,825.827L-104.488,825.764L-104.397,825.702L-104.307,825.641L-104.216,825.58L-104.125,825.519L-104.033,825.459L-103.941,825.4L-103.849,825.341L-103.756,825.283L-103.663,825.225L-103.569,825.168L-103.475,825.111L-103.381,825.055L-103.286,824.999L-103.191,824.944L-103.096,824.89L-103,824.836L-102.904,824.782L-102.808,824.73L-102.711,824.677L-102.614,824.626L-102.516,824.575L-102.419,824.524L-102.32,824.474L-102.222,824.425L-102.123,824.376L-102.024,824.328L-101.924,824.28L-101.825,824.233L-101.724,824.187L-101.624,824.141L-101.523,824.096L-101.422,824.051L-101.32,824.007L-101.219,823.964L-101.117,823.921L-101.014,823.878L-100.911,823.837L-100.808,823.796L-100.705,823.755L-100.601,823.716L-100.497,823.676L-100.393,823.638L-100.289,823.6L-100.184,823.563L-100.079,823.526L-99.973,823.49L-99.867,823.454L-99.761,823.42L-99.655,823.385L-99.549,823.352L-99.442,823.319L-99.335,823.287L-99.227,823.255L-99.119,823.224L-99.011,823.194L-98.903,823.164L-98.795,823.135L-98.686,823.107L-98.577,823.079L-98.468,823.052L-98.358,823.025L-98.248,823L-98.138,822.975L-98.028,822.95L-97.917,822.927L-97.807,822.903L-97.696,822.881L-97.584,822.859L-97.473,822.838L-97.361,822.818L-97.249,822.798L-97.137,822.779L-97.024,822.761L-96.912,822.743L-96.799,822.727L-96.686,822.71L-96.572,822.695L-96.459,822.68L-96.345,822.666L-96.231,822.652L-96.117,822.64L-96.002,822.628L-95.888,822.616L-95.773,822.606L-95.658,822.596L-95.542,822.587L-95.427,822.578L-95.311,822.571L-95.195,822.564L-95.079,822.558L-94.963,822.552L-94.847,822.547L-94.73,822.543L-94.613,822.54L-94.496,822.537L-94.379,822.535L-94.262,822.534L-94.144,822.534L69.492,822.534L69.61,822.534ZM-94.135,828.594L-94.223,828.595L-94.302,828.595L-94.381,828.597L-94.46,828.598L-94.538,828.601L-94.616,828.603L-94.694,828.607L-94.772,828.61L-94.85,828.615L-94.927,828.619L-95.005,828.624L-95.082,828.63L-95.159,828.636L-95.236,828.643L-95.313,828.65L-95.389,828.657L-95.465,828.665L-95.542,828.674L-95.618,828.683L-95.693,828.692L-95.769,828.702L-95.845,828.712L-95.92,828.723L-95.995,828.734L-96.07,828.746L-96.145,828.758L-96.22,828.771L-96.294,828.784L-96.368,828.798L-96.443,828.812L-96.517,828.826L-96.59,828.841L-96.664,828.856L-96.737,828.872L-96.811,828.888L-96.884,828.905L-96.957,828.922L-97.029,828.939L-97.102,828.957L-97.174,828.976L-97.247,828.995L-97.319,829.014L-97.391,829.034L-97.462,829.054L-97.534,829.074L-97.605,829.095L-97.676,829.117L-97.747,829.139L-97.818,829.161L-97.888,829.183L-97.959,829.207L-98.029,829.23L-98.099,829.254L-98.169,829.278L-98.238,829.303L-98.308,829.328L-98.377,829.354L-98.446,829.38L-98.515,829.407L-98.584,829.433L-98.652,829.461L-98.72,829.488L-98.788,829.516L-98.856,829.545L-98.924,829.574L-98.991,829.603L-99.059,829.633L-99.126,829.663L-99.193,829.693L-99.259,829.724L-99.326,829.755L-99.392,829.787L-99.458,829.819L-99.524,829.852L-99.589,829.884L-99.654,829.918L-99.72,829.951L-99.785,829.985L-99.849,830.02L-99.914,830.055L-99.978,830.09L-100.042,830.125L-100.106,830.161L-100.169,830.198L-100.233,830.234L-100.296,830.271L-100.359,830.309L-100.421,830.346L-100.484,830.385L-100.546,830.423L-100.608,830.462L-100.669,830.501L-100.731,830.541L-100.792,830.581L-100.853,830.621L-100.913,830.662L-100.974,830.703L-101.034,830.745L-101.094,830.787L-101.154,830.829L-101.213,830.871L-101.272,830.914L-101.331,830.957L-101.39,831.001L-101.448,831.045L-101.506,831.089L-101.564,831.134L-101.621,831.179L-101.679,831.224L-101.736,831.27L-101.792,831.316L-101.849,831.362L-101.905,831.409L-101.961,831.456L-102.016,831.503L-102.072,831.55L-102.127,831.598L-102.182,831.647L-102.236,831.695L-102.29,831.744L-102.344,831.794L-102.398,831.843L-102.451,831.893L-102.504,831.943L-102.557,831.994L-102.609,832.045L-102.661,832.096L-102.713,832.147L-102.764,832.199L-102.815,832.251L-102.866,832.303L-102.917,832.356L-102.967,832.409L-103.017,832.462L-103.066,832.516L-103.116,832.57L-103.165,832.624L-103.213,832.678L-103.262,832.733L-103.31,832.788L-103.357,832.844L-103.404,832.899L-103.451,832.955L-103.498,833.011L-103.544,833.068L-103.59,833.124L-103.636,833.181L-103.681,833.239L-103.726,833.296L-103.771,833.354L-103.815,833.412L-103.859,833.47L-103.903,833.529L-103.946,833.588L-103.989,833.647L-104.031,833.706L-104.073,833.766L-104.115,833.826L-104.157,833.886L-104.198,833.947L-104.239,834.007L-104.279,834.068L-104.319,834.129L-104.359,834.191L-104.398,834.252L-104.437,834.314L-104.475,834.376L-104.513,834.439L-104.551,834.501L-104.589,834.564L-104.626,834.627L-104.662,834.691L-104.699,834.754L-104.735,834.818L-104.77,834.882L-104.805,834.946L-104.84,835.011L-104.875,835.075L-104.909,835.14L-104.942,835.205L-104.975,835.271L-105.008,835.336L-105.041,835.402L-105.073,835.468L-105.105,835.534L-105.136,835.601L-105.167,835.667L-105.197,835.734L-105.227,835.801L-105.257,835.869L-105.286,835.936L-105.315,836.004L-105.344,836.072L-105.372,836.14L-105.399,836.208L-105.427,836.276L-105.453,836.345L-105.48,836.414L-105.506,836.483L-105.532,836.552L-105.557,836.622L-105.582,836.691L-105.606,836.761L-105.63,836.831L-105.653,836.901L-105.676,836.972L-105.699,837.042L-105.721,837.113L-105.743,837.184L-105.765,837.255L-105.786,837.326L-105.806,837.398L-105.826,837.469L-105.846,837.541L-105.865,837.613L-105.884,837.686L-105.903,837.758L-105.921,837.83L-105.938,837.903L-105.955,837.976L-105.972,838.049L-105.988,838.123L-106.004,838.196L-106.019,838.27L-106.034,838.343L-106.048,838.417L-106.062,838.491L-106.076,838.566L-106.089,838.64L-106.102,838.715L-106.114,838.79L-106.126,838.865L-106.137,838.94L-106.148,839.015L-106.158,839.091L-106.168,839.166L-106.177,839.242L-106.186,839.318L-106.195,839.395L-106.203,839.471L-106.21,839.547L-106.217,839.624L-106.224,839.701L-106.23,839.778L-106.236,839.855L-106.241,839.933L-106.245,840.01L-106.25,840.088L-106.253,840.166L-106.257,840.244L-106.259,840.322L-106.262,840.4L-106.263,840.479L-106.264,840.558L-106.265,840.637L-106.266,840.725L-106.266,1004.34L-106.265,1004.43L-106.264,1004.51L-106.263,1004.59L-106.262,1004.67L-106.259,1004.75L-106.257,1004.82L-106.253,1004.9L-106.25,1004.98L-106.245,1005.06L-106.241,1005.13L-106.236,1005.21L-106.23,1005.29L-106.224,1005.37L-106.217,1005.44L-106.21,1005.52L-106.203,1005.6L-106.195,1005.67L-106.186,1005.75L-106.177,1005.83L-106.168,1005.9L-106.158,1005.98L-106.148,1006.05L-106.137,1006.13L-106.126,1006.2L-106.114,1006.28L-106.102,1006.35L-106.089,1006.43L-106.076,1006.5L-106.062,1006.58L-106.048,1006.65L-106.034,1006.72L-106.019,1006.8L-106.004,1006.87L-105.988,1006.95L-105.972,1007.02L-105.955,1007.09L-105.938,1007.16L-105.921,1007.24L-105.903,1007.31L-105.884,1007.38L-105.865,1007.45L-105.846,1007.53L-105.826,1007.6L-105.806,1007.67L-105.786,1007.74L-105.765,1007.81L-105.743,1007.88L-105.721,1007.96L-105.699,1008.03L-105.676,1008.1L-105.653,1008.17L-105.63,1008.24L-105.606,1008.31L-105.582,1008.38L-105.557,1008.45L-105.532,1008.52L-105.506,1008.59L-105.48,1008.65L-105.453,1008.72L-105.427,1008.79L-105.399,1008.86L-105.372,1008.93L-105.344,1009L-105.315,1009.06L-105.286,1009.13L-105.257,1009.2L-105.227,1009.27L-105.197,1009.33L-105.167,1009.4L-105.136,1009.47L-105.105,1009.53L-105.073,1009.6L-105.041,1009.67L-105.008,1009.73L-104.976,1009.8L-104.942,1009.86L-104.909,1009.93L-104.875,1009.99L-104.84,1010.06L-104.805,1010.12L-104.77,1010.19L-104.735,1010.25L-104.699,1010.31L-104.662,1010.38L-104.626,1010.44L-104.589,1010.5L-104.551,1010.57L-104.513,1010.63L-104.475,1010.69L-104.437,1010.75L-104.398,1010.82L-104.358,1010.88L-104.319,1010.94L-104.279,1011L-104.239,1011.06L-104.198,1011.12L-104.157,1011.18L-104.115,1011.24L-104.074,1011.3L-104.031,1011.36L-103.989,1011.42L-103.946,1011.48L-103.903,1011.54L-103.859,1011.6L-103.815,1011.66L-103.771,1011.71L-103.726,1011.77L-103.681,1011.83L-103.636,1011.89L-103.59,1011.94L-103.544,1012L-103.498,1012.06L-103.451,1012.11L-103.405,1012.17L-103.357,1012.22L-103.309,1012.28L-103.262,1012.33L-103.213,1012.39L-103.164,1012.44L-103.116,1012.5L-103.067,1012.55L-103.017,1012.61L-102.967,1012.66L-102.917,1012.71L-102.866,1012.76L-102.815,1012.82L-102.764,1012.87L-102.713,1012.92L-102.661,1012.97L-102.609,1013.02L-102.557,1013.07L-102.504,1013.12L-102.451,1013.18L-102.397,1013.23L-102.344,1013.27L-102.29,1013.32L-102.236,1013.37L-102.182,1013.42L-102.127,1013.47L-102.072,1013.52L-102.017,1013.57L-101.961,1013.61L-101.905,1013.66L-101.849,1013.71L-101.792,1013.75L-101.736,1013.8L-101.679,1013.84L-101.621,1013.89L-101.564,1013.93L-101.506,1013.98L-101.448,1014.02L-101.39,1014.07L-101.331,1014.11L-101.272,1014.15L-101.213,1014.2L-101.154,1014.24L-101.094,1014.28L-101.034,1014.32L-100.974,1014.36L-100.913,1014.41L-100.853,1014.45L-100.792,1014.49L-100.731,1014.53L-100.669,1014.57L-100.607,1014.61L-100.546,1014.64L-100.484,1014.68L-100.421,1014.72L-100.358,1014.76L-100.296,1014.8L-100.232,1014.83L-100.169,1014.87L-100.106,1014.91L-100.042,1014.94L-99.978,1014.98L-99.914,1015.01L-99.849,1015.05L-99.785,1015.08L-99.72,1015.12L-99.654,1015.15L-99.589,1015.18L-99.523,1015.22L-99.458,1015.25L-99.392,1015.28L-99.326,1015.31L-99.26,1015.34L-99.193,1015.37L-99.126,1015.4L-99.058,1015.44L-98.991,1015.47L-98.924,1015.49L-98.856,1015.52L-98.788,1015.55L-98.721,1015.58L-98.652,1015.61L-98.584,1015.63L-98.515,1015.66L-98.446,1015.69L-98.377,1015.71L-98.308,1015.74L-98.238,1015.76L-98.169,1015.79L-98.099,1015.81L-98.029,1015.84L-97.959,1015.86L-97.888,1015.88L-97.818,1015.91L-97.747,1015.93L-97.676,1015.95L-97.605,1015.97L-97.534,1015.99L-97.462,1016.01L-97.391,1016.03L-97.319,1016.05L-97.246,1016.07L-97.175,1016.09L-97.102,1016.11L-97.03,1016.13L-96.957,1016.15L-96.884,1016.16L-96.811,1016.18L-96.738,1016.2L-96.664,1016.21L-96.59,1016.23L-96.517,1016.24L-96.442,1016.26L-96.369,1016.27L-96.294,1016.28L-96.219,1016.3L-96.145,1016.31L-96.071,1016.32L-95.995,1016.33L-95.92,1016.34L-95.845,1016.36L-95.769,1016.37L-95.694,1016.38L-95.618,1016.38L-95.541,1016.39L-95.465,1016.4L-95.389,1016.41L-95.313,1016.42L-95.236,1016.43L-95.159,1016.43L-95.082,1016.44L-95.005,1016.44L-94.928,1016.45L-94.85,1016.45L-94.772,1016.46L-94.695,1016.46L-94.616,1016.46L-94.538,1016.47L-94.459,1016.47L-94.381,1016.47L-94.302,1016.47L-94.224,1016.47L-94.135,1016.47L69.483,1016.47L69.571,1016.47L69.65,1016.47L69.729,1016.47L69.807,1016.47L69.885,1016.47L69.964,1016.46L70.042,1016.46L70.12,1016.46L70.198,1016.45L70.275,1016.45L70.352,1016.44L70.43,1016.44L70.507,1016.43L70.583,1016.43L70.661,1016.42L70.737,1016.41L70.813,1016.4L70.889,1016.39L70.965,1016.38L71.042,1016.38L71.117,1016.37L71.192,1016.36L71.268,1016.34L71.343,1016.33L71.418,1016.32L71.493,1016.31L71.567,1016.3L71.642,1016.28L71.716,1016.27L71.79,1016.26L71.864,1016.24L71.938,1016.23L72.012,1016.21L72.085,1016.2L72.159,1016.18L72.231,1016.16L72.304,1016.15L72.377,1016.13L72.45,1016.11L72.522,1016.09L72.594,1016.07L72.666,1016.05L72.738,1016.03L72.81,1016.01L72.882,1015.99L72.953,1015.97L73.024,1015.95L73.095,1015.93L73.166,1015.91L73.236,1015.88L73.306,1015.86L73.377,1015.84L73.447,1015.81L73.516,1015.79L73.586,1015.76L73.656,1015.74L73.725,1015.71L73.794,1015.69L73.862,1015.66L73.932,1015.63L74,1015.61L74.068,1015.58L74.136,1015.55L74.204,1015.52L74.272,1015.49L74.339,1015.47L74.406,1015.44L74.473,1015.4L74.54,1015.37L74.607,1015.34L74.673,1015.31L74.739,1015.28L74.806,1015.25L74.871,1015.22L74.936,1015.18L75.002,1015.15L75.068,1015.12L75.133,1015.08L75.197,1015.05L75.261,1015.01L75.326,1014.98L75.39,1014.94L75.454,1014.91L75.517,1014.87L75.58,1014.83L75.643,1014.8L75.706,1014.76L75.769,1014.72L75.831,1014.68L75.893,1014.64L75.955,1014.61L76.017,1014.57L76.078,1014.53L76.14,1014.49L76.2,1014.45L76.261,1014.41L76.322,1014.36L76.382,1014.32L76.441,1014.28L76.501,1014.24L76.561,1014.2L76.62,1014.15L76.679,1014.11L76.737,1014.07L76.796,1014.02L76.854,1013.98L76.912,1013.93L76.969,1013.89L77.026,1013.84L77.083,1013.8L77.14,1013.75L77.197,1013.71L77.253,1013.66L77.308,1013.61L77.364,1013.57L77.42,1013.52L77.474,1013.47L77.529,1013.42L77.584,1013.37L77.638,1013.32L77.691,1013.27L77.745,1013.23L77.799,1013.17L77.852,1013.12L77.904,1013.07L77.957,1013.02L78.009,1012.97L78.06,1012.92L78.112,1012.87L78.163,1012.82L78.214,1012.76L78.265,1012.71L78.314,1012.66L78.365,1012.61L78.415,1012.55L78.463,1012.5L78.512,1012.44L78.561,1012.39L78.609,1012.33L78.657,1012.28L78.705,1012.22L78.752,1012.17L78.799,1012.11L78.846,1012.06L78.892,1012L78.938,1011.94L78.984,1011.89L79.029,1011.83L79.074,1011.77L79.119,1011.71L79.163,1011.66L79.207,1011.6L79.25,1011.54L79.293,1011.48L79.337,1011.42L79.379,1011.36L79.421,1011.3L79.463,1011.24L79.504,1011.18L79.546,1011.12L79.586,1011.06L79.627,1011L79.667,1010.94L79.706,1010.88L79.746,1010.82L79.784,1010.75L79.823,1010.69L79.861,1010.63L79.899,1010.57L79.936,1010.5L79.974,1010.44L80.01,1010.38L80.046,1010.31L80.082,1010.25L80.118,1010.19L80.153,1010.12L80.188,1010.06L80.222,1009.99L80.256,1009.93L80.29,1009.86L80.323,1009.8L80.356,1009.73L80.389,1009.67L80.421,1009.6L80.452,1009.53L80.483,1009.47L80.514,1009.4L80.545,1009.33L80.575,1009.27L80.605,1009.2L80.634,1009.13L80.663,1009.06L80.691,1009L80.719,1008.93L80.747,1008.86L80.774,1008.79L80.801,1008.72L80.828,1008.65L80.854,1008.59L80.879,1008.52L80.904,1008.45L80.929,1008.38L80.954,1008.31L80.978,1008.24L81.001,1008.17L81.024,1008.1L81.047,1008.03L81.069,1007.96L81.091,1007.88L81.112,1007.81L81.133,1007.74L81.154,1007.67L81.174,1007.6L81.194,1007.53L81.213,1007.45L81.232,1007.38L81.25,1007.31L81.268,1007.24L81.286,1007.16L81.303,1007.09L81.319,1007.02L81.336,1006.95L81.352,1006.87L81.367,1006.8L81.382,1006.72L81.396,1006.65L81.41,1006.58L81.424,1006.5L81.437,1006.43L81.449,1006.35L81.461,1006.28L81.473,1006.2L81.485,1006.13L81.495,1006.05L81.506,1005.98L81.515,1005.9L81.525,1005.83L81.534,1005.75L81.542,1005.67L81.55,1005.6L81.558,1005.52L81.565,1005.44L81.572,1005.37L81.578,1005.29L81.583,1005.21L81.588,1005.13L81.593,1005.06L81.597,1004.98L81.601,1004.9L81.604,1004.82L81.607,1004.75L81.609,1004.67L81.611,1004.59L81.612,1004.51L81.613,1004.43L81.613,1004.34L81.613,840.725L81.613,840.636L81.612,840.558L81.611,840.479L81.609,840.401L81.607,840.322L81.604,840.244L81.601,840.165L81.597,840.088L81.593,840.01L81.588,839.932L81.583,839.855L81.578,839.778L81.572,839.701L81.565,839.624L81.558,839.547L81.55,839.471L81.542,839.394L81.534,839.319L81.525,839.242L81.515,839.166L81.506,839.091L81.495,839.015L81.485,838.94L81.473,838.865L81.461,838.789L81.449,838.715L81.437,838.641L81.424,838.566L81.41,838.491L81.396,838.417L81.382,838.343L81.367,838.27L81.352,838.196L81.336,838.122L81.319,838.049L81.303,837.976L81.286,837.903L81.268,837.83L81.25,837.758L81.232,837.685L81.213,837.614L81.194,837.541L81.174,837.469L81.154,837.398L81.133,837.326L81.112,837.255L81.091,837.184L81.069,837.113L81.047,837.042L81.024,836.972L81.001,836.901L80.978,836.831L80.953,836.761L80.929,836.691L80.904,836.622L80.879,836.552L80.854,836.483L80.828,836.414L80.801,836.345L80.774,836.276L80.747,836.208L80.719,836.139L80.691,836.072L80.663,836.004L80.634,835.936L80.605,835.869L80.575,835.801L80.545,835.734L80.514,835.667L80.483,835.6L80.452,835.534L80.421,835.468L80.389,835.402L80.356,835.337L80.323,835.271L80.29,835.206L80.256,835.14L80.222,835.075L80.188,835.011L80.153,834.946L80.118,834.882L80.082,834.818L80.046,834.754L80.01,834.691L79.974,834.628L79.936,834.564L79.899,834.501L79.861,834.439L79.823,834.376L79.784,834.314L79.746,834.253L79.706,834.191L79.667,834.129L79.627,834.068L79.586,834.007L79.546,833.947L79.504,833.886L79.463,833.826L79.421,833.766L79.379,833.706L79.337,833.647L79.293,833.588L79.25,833.529L79.207,833.47L79.163,833.412L79.119,833.354L79.074,833.296L79.029,833.239L78.984,833.181L78.938,833.124L78.892,833.068L78.846,833.011L78.799,832.955L78.752,832.899L78.705,832.843L78.657,832.788L78.609,832.733L78.561,832.678L78.512,832.624L78.463,832.57L78.414,832.516L78.365,832.462L78.315,832.409L78.264,832.356L78.214,832.303L78.163,832.251L78.112,832.199L78.061,832.147L78.009,832.096L77.957,832.045L77.904,831.994L77.851,831.943L77.799,831.893L77.745,831.843L77.692,831.793L77.638,831.744L77.584,831.696L77.529,831.647L77.474,831.598L77.42,831.551L77.364,831.503L77.308,831.455L77.253,831.409L77.197,831.362L77.14,831.316L77.083,831.27L77.026,831.224L76.969,831.179L76.911,831.134L76.854,831.089L76.796,831.045L76.737,831.001L76.679,830.957L76.62,830.914L76.561,830.871L76.501,830.829L76.441,830.786L76.382,830.745L76.322,830.703L76.261,830.662L76.2,830.621L76.14,830.581L76.078,830.541L76.017,830.502L75.955,830.462L75.893,830.423L75.831,830.385L75.769,830.347L75.706,830.309L75.643,830.271L75.581,830.234L75.517,830.197L75.453,830.161L75.39,830.125L75.326,830.09L75.262,830.055L75.197,830.02L75.132,829.985L75.067,829.951L75.002,829.918L74.937,829.884L74.871,829.852L74.806,829.819L74.74,829.787L74.673,829.755L74.607,829.724L74.54,829.693L74.474,829.663L74.406,829.633L74.339,829.603L74.272,829.574L74.204,829.545L74.136,829.516L74.068,829.488L74,829.461L73.931,829.433L73.863,829.407L73.794,829.38L73.725,829.354L73.656,829.328L73.586,829.303L73.516,829.278L73.447,829.254L73.377,829.23L73.306,829.207L73.236,829.183L73.166,829.161L73.095,829.139L73.024,829.117L72.953,829.095L72.881,829.074L72.81,829.054L72.738,829.034L72.666,829.014L72.594,828.995L72.522,828.976L72.45,828.957L72.377,828.939L72.304,828.922L72.232,828.905L72.158,828.888L72.085,828.872L72.012,828.856L71.938,828.841L71.864,828.826L71.79,828.812L71.716,828.798L71.642,828.784L71.567,828.771L71.493,828.758L71.418,828.746L71.343,828.734L71.268,828.723L71.192,828.712L71.117,828.702L71.041,828.692L70.965,828.683L70.889,828.674L70.813,828.665L70.737,828.657L70.66,828.65L70.584,828.643L70.507,828.636L70.43,828.63L70.352,828.624L70.275,828.619L70.198,828.615L70.12,828.61L70.042,828.607L69.964,828.603L69.886,828.601L69.807,828.598L69.729,828.597L69.65,828.595L69.571,828.595L69.482,828.594L-94.135,828.594Z" style="fill:white;"/>
        </g>
        <g id="ZS" transform="matrix(1.52347,0,0,1.52347,-49.9473,505.813)">
            <path id="Z" d="M48.913,-186.912L48.913,-168.165L139.924,-168.165L139.924,-188.121L80.51,-188.121L138.412,-257.362L138.412,-276.109L53.448,-276.109L53.448,-256.153L106.815,-256.153L48.913,-186.912Z" style="fill:white;fill-rule:nonzero;"/>
            <path id="S" d="M159.19,-203.693L148.91,-203.693C148.607,-197.041 149.464,-191.347 151.48,-186.61C153.596,-181.873 156.569,-177.992 160.399,-174.969C164.229,-171.945 168.865,-169.677 174.308,-168.165C179.75,-166.754 185.647,-166.049 191.996,-166.049C198.346,-166.049 203.788,-166.654 208.324,-167.863C212.859,-168.972 216.639,-170.433 219.662,-172.247C222.787,-174.162 225.206,-176.279 226.919,-178.597C228.733,-180.915 230.094,-183.183 231.001,-185.4C232.009,-187.718 232.613,-189.885 232.815,-191.901C233.117,-193.917 233.269,-195.529 233.269,-196.739C233.269,-201.173 232.513,-204.953 231.001,-208.077C229.59,-211.202 227.574,-213.822 224.954,-215.939C222.434,-218.156 219.461,-219.97 216.034,-221.381C212.708,-222.893 209.13,-224.153 205.3,-225.161L178.995,-231.661C176.777,-232.165 174.661,-232.821 172.645,-233.627C170.73,-234.433 169.017,-235.491 167.505,-236.802C165.993,-238.112 164.784,-239.674 163.876,-241.488C163.07,-243.403 162.667,-245.621 162.667,-248.14C162.667,-252.172 163.423,-255.548 164.935,-258.269C166.447,-260.991 168.412,-263.158 170.831,-264.77C173.35,-266.484 176.223,-267.693 179.448,-268.398C182.774,-269.205 186.201,-269.608 189.728,-269.608C193.558,-269.608 197.187,-269.054 200.613,-267.945C204.141,-266.937 207.215,-265.375 209.836,-263.258C212.557,-261.243 214.724,-258.672 216.336,-255.548C218.05,-252.524 219.007,-248.947 219.209,-244.814L229.489,-244.814C229.489,-250.358 228.38,-255.195 226.163,-259.328C224.047,-263.561 221.174,-267.088 217.546,-269.91C213.917,-272.732 209.684,-274.849 204.847,-276.26C200.009,-277.671 194.919,-278.376 189.577,-278.376C182.018,-278.376 175.82,-277.268 170.982,-275.05C166.144,-272.934 162.314,-270.313 159.492,-267.189C156.771,-264.065 154.906,-260.739 153.899,-257.211C152.891,-253.684 152.387,-250.61 152.387,-247.989C152.387,-243.756 153.042,-240.178 154.352,-237.255C155.763,-234.332 157.577,-231.863 159.795,-229.847C162.012,-227.832 164.582,-226.219 167.505,-225.01C170.528,-223.8 173.602,-222.792 176.727,-221.986L200.765,-216.09C203.284,-215.485 205.854,-214.679 208.475,-213.671C211.095,-212.764 213.464,-211.554 215.58,-210.043C217.798,-208.531 219.561,-206.666 220.872,-204.449C222.283,-202.232 222.988,-199.611 222.988,-196.587C222.988,-192.657 222.031,-189.28 220.116,-186.458C218.201,-183.737 215.782,-181.469 212.859,-179.655C210.037,-177.942 206.963,-176.682 203.637,-175.876C200.311,-175.069 197.237,-174.666 194.415,-174.666C189.476,-174.666 184.84,-175.12 180.506,-176.027C176.173,-177.035 172.393,-178.647 169.168,-180.865C166.043,-183.082 163.574,-186.055 161.76,-189.784C159.946,-193.513 159.089,-198.15 159.19,-203.693Z" style="fill:white;fill-rule:nonzero;"/>
        </g>
    </g>
</svg>
