<?xml version="1.0" encoding="UTF-8" standalone="no"?>
<!-- Created with Inkscape (http://www.inkscape.org/) -->

<svg
   xmlns:dc="http://purl.org/dc/elements/1.1/"
   xmlns:cc="http://creativecommons.org/ns#"
   xmlns:rdf="http://www.w3.org/1999/02/22-rdf-syntax-ns#"
   xmlns:svg="http://www.w3.org/2000/svg"
   xmlns="http://www.w3.org/2000/svg"
   xmlns:sodipodi="http://sodipodi.sourceforge.net/DTD/sodipodi-0.dtd"
   xmlns:inkscape="http://www.inkscape.org/namespaces/inkscape"
   width="1279.4399"
   height="200"
   viewBox="0 0 338.51853 52.916669"
   version="1.1"
   id="svg8"
   inkscape:version="0.92.2 5c3e80d, 2017-08-06"
   sodipodi:docname="logo-web.svg"
   style="enable-background:new">
  <defs
     id="defs2" />
  <sodipodi:namedview
     id="base"
     pagecolor="#ffffff"
     bordercolor="#666666"
     borderopacity="1.0"
     inkscape:pageopacity="0.0"
     inkscape:pageshadow="2"
     inkscape:zoom="0.32"
     inkscape:cx="670.0718"
     inkscape:cy="282.12594"
     inkscape:document-units="px"
     inkscape:current-layer="layer1"
     showgrid="false"
     units="px"
     inkscape:pagecheckerboard="true"
     inkscape:window-width="1280"
     inkscape:window-height="706"
     inkscape:window-x="0"
     inkscape:window-y="1"
     inkscape:window-maximized="1"
     fit-margin-top="0"
     fit-margin-right="0"
     fit-margin-bottom="0"
     fit-margin-left="0"
     showguides="true"
     inkscape:guide-bbox="true" />
  <metadata
     id="metadata5">
    <rdf:RDF>
      <cc:Work
         rdf:about="">
        <dc:format>image/svg+xml</dc:format>
        <dc:type
           rdf:resource="http://purl.org/dc/dcmitype/StillImage" />
        <dc:title></dc:title>
      </cc:Work>
    </rdf:RDF>
  </metadata>
  <g
     inkscape:label="Layer 1"
     inkscape:groupmode="layer"
     id="layer1"
     transform="translate(29.719627,-217.62877)">
    <g
       aria-label="Zachary Seguin"
       transform="matrix(0.32407396,0,0,0.32407396,-14.879038,284.93659)"
       style="font-style:normal;font-weight:normal;font-size:85.33333588px;line-height:1.25;font-family:sans-serif;letter-spacing:0px;word-spacing:0px;fill:#000000;fill-opacity:1;stroke:none;stroke-width:1px;stroke-linecap:butt;stroke-linejoin:miter;stroke-opacity:1"
       id="flowRoot3718">
      <path
         d="m 150.14911,-99.100233 v 14.880001 h 72.24001 v -15.839998 h -47.16001 l 45.96001,-54.96001 v -14.88 h -67.44001 v 15.84 h 42.36001 z"
         style="font-style:normal;font-variant:normal;font-weight:bold;font-stretch:normal;font-size:120.00000763px;line-height:1.25;font-family:'Helvetica Neue';-inkscape-font-specification:'Helvetica Neue Bold';text-align:center;text-anchor:middle;fill:#1f1f1f;fill-opacity:1"
         id="path3773"
         inkscape:connector-curvature="0" />
      <path
         d="m 230.96162,-127.18023 q 0.36,-6.00001 3,-9.96001 2.64,-3.96 6.72,-6.36 4.08,-2.4 9.12,-3.36 5.16,-1.08 10.32,-1.08 4.68,0 9.48,0.72 4.8,0.6 8.76,2.52 3.96,1.92 6.48,5.4 2.52,3.36 2.52,9 v 32.280007 q 0,4.200001 0.48,8.040001 0.48,3.84 1.68,5.76 h -17.28 q -0.48,-1.44 -0.84,-2.88 -0.24,-1.56 -0.36,-3.12 -4.08,4.2 -9.6,5.88 -5.52,1.68 -11.28,1.68 -4.44,0 -8.28,-1.08 -3.84,-1.08 -6.72,-3.36 -2.88,-2.28 -4.56,-5.76 -1.56,-3.480001 -1.56,-8.279998 0,-5.28 1.8,-8.64 1.92,-3.48 4.8,-5.52 3,-2.04 6.72,-3 3.84,-1.08 7.68,-1.68 3.84,-0.6 7.56,-0.96 3.72,-0.36 6.6,-1.08 2.88,-0.72 4.56,-2.04 1.68,-1.44 1.56,-4.08001 0,-2.76 -0.96,-4.32 -0.84,-1.68 -2.4,-2.52 -1.44,-0.96 -3.48,-1.2 -1.92,-0.36 -4.2,-0.36 -5.04,0 -7.92,2.16 -2.88,2.16 -3.36,7.20001 z m 39.36,12.6 q -1.08,0.96 -2.76,1.56 -1.56,0.48 -3.48,0.84 -1.8,0.36 -3.84,0.6 -2.04,0.24 -4.08,0.6 -1.92,0.36 -3.84,0.96 -1.8,0.6 -3.24,1.68 -1.32,0.96 -2.16,2.52 -0.84,1.56 -0.84,3.96 0,2.279997 0.84,3.839997 0.84,1.56 2.28,2.520001 1.44,0.84 3.36,1.2 1.92,0.36 3.96,0.36 5.04,0 7.8,-1.68 2.76,-1.680001 4.08,-3.960001 1.32,-2.399997 1.56,-4.799997 0.36,-2.4 0.36,-3.84 z"
         style="font-style:normal;font-variant:normal;font-weight:bold;font-stretch:normal;font-size:120.00000763px;line-height:1.25;font-family:'Helvetica Neue';-inkscape-font-specification:'Helvetica Neue Bold';text-align:center;text-anchor:middle;fill:#1f1f1f;fill-opacity:1"
         id="path3775"
         inkscape:connector-curvature="0" />
      <path
         d="m 342.82788,-124.42023 h 16.68 q -0.36,-6.00001 -2.88,-10.32001 -2.52,-4.44 -6.6,-7.32 -3.96,-3 -9.12,-4.44 -5.04,-1.44 -10.56,-1.44 -7.56,0 -13.44,2.52 -5.88,2.52 -9.96,7.08 -4.08,4.44 -6.24,10.68 -2.04,6.12001 -2.04,13.32001 0,6.96 2.28,12.84 2.28,5.759998 6.36,9.959998 4.08,4.2 9.84,6.6 5.88,2.28 12.84,2.28 12.36,0 20.28,-6.48 7.92,-6.48 9.6,-18.839998 h -16.44 q -0.84,5.76 -4.2,9.239997 -3.24,3.360001 -9.36,3.360001 -3.96,0 -6.72,-1.800001 -2.76,-1.8 -4.44,-4.559997 -1.56,-2.88 -2.28,-6.36 -0.72,-3.48 -0.72,-6.84 0,-3.48 0.72,-6.96 0.72,-3.6 2.4,-6.48001 1.8,-3 4.56,-4.8 2.76,-1.92 6.84,-1.92 10.92,0 12.6,10.68001 z"
         style="font-style:normal;font-variant:normal;font-weight:bold;font-stretch:normal;font-size:120.00000763px;line-height:1.25;font-family:'Helvetica Neue';-inkscape-font-specification:'Helvetica Neue Bold';text-align:center;text-anchor:middle;fill:#1f1f1f;fill-opacity:1"
         id="path3777"
         inkscape:connector-curvature="0" />
      <path
         d="m 369.49414,-169.90024 v 85.680008 h 17.04 v -32.519998 q 0,-9.48 3.12001,-13.56001 3.12,-4.2 10.08,-4.2 6.12,0 8.52,3.84 2.4,3.72001 2.4,11.40001 v 35.039998 h 17.04 v -38.159998 q 0,-5.76001 -1.08,-10.44001 -0.96,-4.8 -3.48,-8.04 -2.52,-3.36 -6.96,-5.16 -4.32,-1.92 -11.16,-1.92 -4.8,0 -9.84,2.52 -5.04,2.4 -8.28001,7.8 h -0.36 v -32.28 z"
         style="font-style:normal;font-variant:normal;font-weight:bold;font-stretch:normal;font-size:120.00000763px;line-height:1.25;font-family:'Helvetica Neue';-inkscape-font-specification:'Helvetica Neue Bold';text-align:center;text-anchor:middle;fill:#1f1f1f;fill-opacity:1"
         id="path3779"
         inkscape:connector-curvature="0" />
      <path
         d="m 440.02414,-127.18023 q 0.36,-6.00001 3,-9.96001 2.64,-3.96 6.72,-6.36 4.08,-2.4 9.12,-3.36 5.16001,-1.08 10.32001,-1.08 4.68,0 9.48,0.72 4.8,0.6 8.76,2.52 3.96,1.92 6.48,5.4 2.52,3.36 2.52,9 v 32.280007 q 0,4.200001 0.48,8.040001 0.48,3.84 1.68,5.76 h -17.28 q -0.48,-1.44 -0.84,-2.88 -0.24,-1.56 -0.36,-3.12 -4.08,4.2 -9.6,5.88 -5.52,1.68 -11.28001,1.68 -4.44,0 -8.28,-1.08 -3.84,-1.08 -6.72,-3.36 -2.88,-2.28 -4.56,-5.76 -1.56,-3.480001 -1.56,-8.279998 0,-5.28 1.8,-8.64 1.92,-3.48 4.8,-5.52 3,-2.04 6.72,-3 3.84,-1.08 7.68,-1.68 3.84001,-0.6 7.56001,-0.96 3.72,-0.36 6.6,-1.08 2.88,-0.72 4.56,-2.04 1.68,-1.44 1.56,-4.08001 0,-2.76 -0.96,-4.32 -0.84,-1.68 -2.4,-2.52 -1.44,-0.96 -3.48,-1.2 -1.92,-0.36 -4.2,-0.36 -5.04,0 -7.92,2.16 -2.88001,2.16 -3.36001,7.20001 z m 39.36001,12.6 q -1.08,0.96 -2.76,1.56 -1.56,0.48 -3.48,0.84 -1.8,0.36 -3.84,0.6 -2.04,0.24 -4.08,0.6 -1.92,0.36 -3.84,0.96 -1.80001,0.6 -3.24001,1.68 -1.32,0.96 -2.16,2.52 -0.84,1.56 -0.84,3.96 0,2.279997 0.84,3.839997 0.84,1.56 2.28,2.520001 1.44,0.84 3.36001,1.2 1.92,0.36 3.96,0.36 5.04,0 7.8,-1.68 2.76,-1.680001 4.08,-3.960001 1.32,-2.399997 1.56,-4.799997 0.36,-2.4 0.36,-3.84 z"
         style="font-style:normal;font-variant:normal;font-weight:bold;font-stretch:normal;font-size:120.00000763px;line-height:1.25;font-family:'Helvetica Neue';-inkscape-font-specification:'Helvetica Neue Bold';text-align:center;text-anchor:middle;fill:#1f1f1f;fill-opacity:1"
         id="path3781"
         inkscape:connector-curvature="0" />
      <path
         d="m 509.65039,-146.26024 v 62.040008 h 17.04 v -27.959998 q 0,-4.2 0.84,-7.8 0.84,-3.6 2.76001,-6.24 2.04,-2.76001 5.28,-4.32001 3.24,-1.56 7.92,-1.56 1.56,0 3.24,0.24 1.68,0.12 2.88,0.36 v -15.84 q -2.04,-0.6 -3.72,-0.6 -3.24,0 -6.24,0.96 -3,0.96 -5.64,2.76 -2.64,1.68 -4.68,4.2 -2.04001,2.4 -3.24001,5.28 h -0.24 v -11.52 z"
         style="font-style:normal;font-variant:normal;font-weight:bold;font-stretch:normal;font-size:120.00000763px;line-height:1.25;font-family:'Helvetica Neue';-inkscape-font-specification:'Helvetica Neue Bold';text-align:center;text-anchor:middle;fill:#1f1f1f;fill-opacity:1"
         id="path3783"
         inkscape:connector-curvature="0" />
      <path
         d="m 591.2904,-77.620232 25.92,-69.720008 h -17.64 l -13.56,42.48001 h -0.24 l -14.04,-42.48001 h -18.12 l 21.72,58.200008 q 0.72,1.8 0.72,3.84 0,2.76 -1.68,5.04 -1.56,2.28 -4.92,2.64 -2.52,0.12 -5.04,-0.12 -2.52,-0.24 -4.92,-0.48 v 14.04 q 2.64,0.24 5.16,0.36 2.64,0.24 5.28,0.24 8.76,0 13.68,-3.24 4.92,-3.24 7.68,-10.8 z"
         style="font-style:normal;font-variant:normal;font-weight:bold;font-stretch:normal;font-size:120.00000763px;line-height:1.25;font-family:'Helvetica Neue';-inkscape-font-specification:'Helvetica Neue Bold';text-align:center;text-anchor:middle;fill:#1f1f1f;fill-opacity:1"
         id="path3785"
         inkscape:connector-curvature="0" />
      <path
         d="m 662.33547,-113.52509 h -8.16 q -0.36,7.92 2.04,13.560003 2.52,5.640001 7.08,9.240001 4.56,3.6 11.04,5.4 6.48,1.68 14.04,1.68 7.56,0 12.96,-1.44 5.4,-1.32 9,-3.48 3.72,-2.28 5.76,-5.04 2.16,-2.76 3.24,-5.400001 1.2,-2.760003 1.44,-5.160003 0.36,-2.4 0.36,-3.84 0,-5.28 -1.8,-9 -1.68,-3.72 -4.8,-6.24 -3,-2.64 -7.08,-4.32 -3.96,-1.8 -8.52,-3 l -20.88,-5.16 q -2.64,-0.6 -5.04,-1.56 -2.28,-0.96 -4.08,-2.52 -1.8,-1.56 -2.88,-3.72 -0.96,-2.28 -0.96,-5.28 0,-4.8 1.8,-8.04 1.8,-3.24 4.68,-5.16 3,-2.04 6.84,-2.88 3.96,-0.96 8.16,-0.96 4.56,0 8.64,1.32 4.2,1.2 7.32,3.72 3.24,2.4 5.16,6.12 2.04,3.6 2.28,8.52 h 8.16 q 0,-6.6 -2.64,-11.52 -2.52,-5.04 -6.84,-8.4 -4.32,-3.36 -10.08,-5.04 -5.76,-1.68 -12.12,-1.68 -9,0 -14.76,2.64 -5.76,2.52 -9.12,6.24 -3.24,3.72 -4.44,7.92 -1.2,4.2 -1.2,7.32 0,5.04 1.56,8.52 1.68,3.48 4.32,5.88 2.64,2.4 6.12,3.84 3.6,1.44 7.32,2.4 l 19.08,4.68 q 3,0.72 6.12,1.92 3.12,1.08 5.64,2.88 2.64,1.8 4.2,4.44 1.68,2.64 1.68,6.24 0,4.68 -2.28,8.040003 -2.28,3.240001 -5.76,5.400001 -3.36,2.04 -7.32,3 -3.96,0.96 -7.32,0.96 -5.88,0 -11.04,-1.08 -5.16,-1.2 -9,-3.84 -3.72,-2.640001 -5.88,-7.080004 -2.16,-4.44 -2.04,-11.04 z"
         style="font-style:normal;font-variant:normal;font-weight:300;font-stretch:normal;font-size:120.00000763px;line-height:1.25;font-family:'Helvetica Neue';-inkscape-font-specification:'Helvetica Neue Light';text-align:center;text-anchor:middle;fill:#1f1f1f;fill-opacity:1"
         id="path3787"
         inkscape:connector-curvature="0" />
      <path
         d="m 777.2786,-120.60509 h -40.08001 q 0.48,-4.2 1.92,-8.16 1.56,-4.08 4.08001,-7.08 2.52,-3.12 6.12,-4.92 3.6,-1.92 8.28,-1.92 4.56,0 8.16,1.92 3.6,1.8 6.12,4.92 2.52,3 3.84,6.96 1.44,3.96 1.56,8.28 z m -40.08001,6.36 h 47.64001 q 0.24,-6.48 -1.2,-12.72 -1.44,-6.36 -4.8,-11.16 -3.24,-4.92 -8.52,-7.92 -5.28,-3 -12.72,-3 -7.32,0 -12.72,2.88 -5.28001,2.76 -8.64001,7.44 -3.36,4.56 -5.04,10.44 -1.56,5.88 -1.56,12 0,6.6 1.56,12.6 1.68,5.880003 5.04,10.440004 3.36,4.44 8.64001,7.08 5.4,2.52 12.72,2.52 11.76,0 18.12,-5.76 6.48,-5.76 8.88,-16.320004 h -7.56 q -1.8,7.200003 -6.48,11.520004 -4.68,4.32 -12.96,4.32 -5.4,0 -9.24,-2.28 -3.84,-2.28 -6.36001,-5.760001 -2.52,-3.480003 -3.72,-7.800003 -1.08,-4.44 -1.08,-8.52 z"
         style="font-style:normal;font-variant:normal;font-weight:300;font-stretch:normal;font-size:120.00000763px;line-height:1.25;font-family:'Helvetica Neue';-inkscape-font-specification:'Helvetica Neue Light';text-align:center;text-anchor:middle;fill:#1f1f1f;fill-opacity:1"
         id="path3789"
         inkscape:connector-curvature="0" />
      <path
         d="m 847.42235,-90.365086 v -56.880004 h -7.56 v 10.68 h -0.24 q -1.08,-2.52 -3.12,-4.8 -1.92,-2.28 -4.44,-3.96 -2.52,-1.8 -5.64,-2.76 -3,-0.96 -6.48,-0.96 -6.72,0 -12,2.52 -5.16001,2.4 -8.76001,6.72 -3.48,4.2 -5.4,9.96 -1.8,5.64 -1.8,12 0,6.6 1.56,12.48 1.56,5.760003 4.92,10.080004 3.48,4.32 8.76001,6.84 5.28,2.4 12.72,2.4 6.84,0 11.88,-3.48 5.16,-3.48 7.8,-9.240001 h 0.24 v 8.400001 q 0,11.28 -4.68,17.28 -4.68,6 -15.24,6 -3.12,0 -6.12,-0.72 -3,-0.6 -5.52,-2.04 -2.4,-1.44 -4.20001,-3.84 -1.68,-2.28 -2.28,-5.76 h -7.56 q 0.36,4.92 2.64,8.4 2.4,3.6 5.88,5.88 3.60001,2.28 8.04001,3.36 4.44,1.08 9.12,1.08 7.56,0 12.72,-2.04 5.28,-2.04 8.52,-5.88 3.24,-3.84 4.68,-9.36 1.56,-5.52 1.56,-12.36 z m -27.48,-2.04 q -5.28,0 -9.12,-2.04 -3.84,-2.16 -6.36001,-5.520001 -2.52,-3.480003 -3.72,-7.920003 -1.2,-4.44 -1.2,-9.12 0,-4.8 1.08,-9.36 1.2,-4.68 3.72,-8.28 2.52001,-3.6 6.36001,-5.76 3.84,-2.28 9.24,-2.28 5.4,0 9.12,2.28 3.84,2.28 6.24,6 2.4,3.72 3.48,8.28 1.08,4.56 1.08,9.12 0,4.68 -1.32,9.12 -1.2,4.44 -3.72,7.920003 -2.52,3.360001 -6.24,5.520001 -3.72,2.04 -8.64,2.04 z"
         style="font-style:normal;font-variant:normal;font-weight:300;font-stretch:normal;font-size:120.00000763px;line-height:1.25;font-family:'Helvetica Neue';-inkscape-font-specification:'Helvetica Neue Light';text-align:center;text-anchor:middle;fill:#1f1f1f;fill-opacity:1"
         id="path3791"
         inkscape:connector-curvature="0" />
      <path
         d="m 912.05922,-85.325086 v -61.920004 h -7.56 v 32.52 q 0,4.68 -1.08,9.24 -1.08,4.44 -3.36,7.920003 -2.28,3.480001 -5.76,5.640001 -3.48,2.04 -8.4,2.04 -9,0 -12.72,-4.32 -3.6,-4.320001 -3.84,-12.720004 v -40.32 h -7.56 v 40.2 q 0,5.52 1.2,9.840004 1.2,4.32 3.72,7.32 2.64,3 6.72,4.56 4.2,1.68 10.08,1.68 6.96,0 12.6,-3.24 5.76,-3.36 8.76,-9.6 h 0.24 v 11.16 z"
         style="font-style:normal;font-variant:normal;font-weight:300;font-stretch:normal;font-size:120.00000763px;line-height:1.25;font-family:'Helvetica Neue';-inkscape-font-specification:'Helvetica Neue Light';text-align:center;text-anchor:middle;fill:#1f1f1f;fill-opacity:1"
         id="path3793"
         inkscape:connector-curvature="0" />
      <path
         d="m 926.47234,-171.00509 v 12.12 h 7.56 v -12.12 z m 0,23.76 v 61.920004 h 7.56 v -61.920004 z"
         style="font-style:normal;font-variant:normal;font-weight:300;font-stretch:normal;font-size:120.00000763px;line-height:1.25;font-family:'Helvetica Neue';-inkscape-font-specification:'Helvetica Neue Light';text-align:center;text-anchor:middle;fill:#1f1f1f;fill-opacity:1"
         id="path3795"
         inkscape:connector-curvature="0" />
      <path
         d="m 948.49797,-147.24509 v 61.920004 h 7.56 v -36.120004 q 0.12,-4.56 1.44,-8.4 1.44,-3.96 3.84,-6.72 2.52,-2.88 6,-4.44 3.6,-1.68 8.16,-1.68 4.56,0 7.56,1.44 3.12,1.44 4.92,3.96 1.8,2.52 2.52,6 0.72,3.36 0.72,7.32 v 38.640004 h 7.56 v -39.840004 q 0,-5.52 -1.08,-9.96 -1.08,-4.44 -3.72,-7.44 -2.64,-3.12 -7.08,-4.8 -4.32,-1.68 -10.8,-1.68 -6.6,0 -12.12,3.48 -5.52,3.36 -7.68,9 h -0.24 v -10.68 z"
         style="font-style:normal;font-variant:normal;font-weight:300;font-stretch:normal;font-size:120.00000763px;line-height:1.25;font-family:'Helvetica Neue';-inkscape-font-specification:'Helvetica Neue Light';text-align:center;text-anchor:middle;fill:#1f1f1f;fill-opacity:1"
         id="path3797"
         inkscape:connector-curvature="0" />
    </g>
    <text
       xml:space="preserve"
       style="font-style:normal;font-weight:normal;font-size:10.58333302px;line-height:1.25;font-family:sans-serif;letter-spacing:0px;word-spacing:0px;fill:#000000;fill-opacity:1;stroke:none;stroke-width:0.26458332px;stroke-linecap:butt;stroke-linejoin:miter;stroke-opacity:1"
       x="139.22144"
       y="230.79181"
       id="text3732"><tspan
         sodipodi:role="line"
         id="tspan3730"
         x="139.22144"
         y="240.15558"
         style="stroke-width:0.26458332px" /></text>
    <rect
       style="fill:#1f1f1f;fill-opacity:1;stroke-width:0.8743273"
       id="rect3831"
       width="52.916672"
       height="52.916672"
       x="-29.719627"
       y="217.62877"
       rx="3.8267083" />
    <g
       aria-label="ZS"
       transform="matrix(0.96952964,0,0,0.96952964,-39.393351,300.76806)"
       style="font-style:normal;font-weight:normal;font-size:40px;line-height:1.25;font-family:sans-serif;letter-spacing:0px;word-spacing:0px;fill:#000000;fill-opacity:1;stroke:none;stroke-width:1px;stroke-linecap:butt;stroke-linejoin:miter;stroke-opacity:1"
       id="flowRoot3819">
      <path
         inkscape:connector-curvature="0"
         d="m 12.941484,-49.453776 v 4.96 h 24.08 v -5.28 h -15.72 l 15.32,-18.32 v -4.96 h -22.48 v 5.28 h 14.12 z"
         style="font-style:normal;font-variant:normal;font-weight:bold;font-stretch:normal;font-family:'Helvetica Neue';-inkscape-font-specification:'Helvetica Neue Bold';fill:#ffffff"
         id="path4674" />
      <path
         inkscape:connector-curvature="0"
         d="m 42.118984,-53.893776 h -2.72 q -0.12,2.64 0.68,4.52 0.84,1.88 2.36,3.08 1.52,1.2 3.68,1.8 2.16,0.56 4.68,0.56 2.52,0 4.32,-0.48 1.8,-0.44 3,-1.16 1.24,-0.76 1.92,-1.68 0.72,-0.92 1.08,-1.8 0.4,-0.92 0.48,-1.72 0.12,-0.8 0.12,-1.28 0,-1.76 -0.6,-3 -0.56,-1.24 -1.6,-2.08 -1,-0.88 -2.36,-1.44 -1.32,-0.6 -2.84,-1 l -6.96,-1.72 q -0.88,-0.2 -1.68,-0.52 -0.76,-0.32 -1.36,-0.84 -0.6,-0.52 -0.96,-1.24 -0.32,-0.76 -0.32,-1.76 0,-1.6 0.6,-2.68 0.6,-1.08 1.56,-1.72 1,-0.68 2.28,-0.96 1.32,-0.32 2.72,-0.32 1.52,0 2.88,0.44 1.4,0.4 2.44,1.24 1.08,0.8 1.72,2.04 0.68,1.2 0.76,2.84 h 2.72 q 0,-2.2 -0.88,-3.84 -0.84,-1.68 -2.28,-2.8 -1.44,-1.12 -3.36,-1.68 -1.92,-0.56 -4.04,-0.56 -3,0 -4.92,0.88 -1.92,0.84 -3.04,2.08 -1.08,1.24 -1.48,2.64 -0.4,1.4 -0.4,2.44 0,1.68 0.52,2.84 0.56,1.16 1.44,1.96 0.88,0.8 2.04,1.28 1.2,0.48 2.44,0.8 l 6.36,1.56 q 1,0.24 2.04,0.64 1.04,0.36 1.88,0.96 0.88,0.6 1.4,1.48 0.56,0.88 0.56,2.08 0,1.56 -0.76,2.68 -0.76,1.08 -1.92,1.8 -1.12,0.68 -2.44,1 -1.32,0.32 -2.44,0.32 -1.96,0 -3.68,-0.36 -1.72,-0.4 -3,-1.28 -1.24,-0.88 -1.96,-2.36 -0.72,-1.48 -0.68,-3.68 z"
         style="font-style:normal;font-variant:normal;font-weight:300;font-stretch:normal;font-family:'Helvetica Neue';-inkscape-font-specification:'Helvetica Neue Light';fill:#ffffff"
         id="path4676" />
    </g>
  </g>
</svg>
